<svg xmlns="http://www.w3.org/2000/svg" width="28.975" height="47.602" viewBox="0 0 28.975 47.602"><defs><style>.a{fill:#e20074;fill-rule:evenodd;}</style></defs><path class="a" d="M27.766.5a6.227,6.227,0,0,1,6.209,6.209h0V41.893A6.227,6.227,0,0,1,27.766,48.1H11.209A6.227,6.227,0,0,1,5,41.893H5V6.709A6.227,6.227,0,0,1,11.209.5H27.766ZM15.348,3.6H11.209a3.049,3.049,0,0,0-3.1,3.1h0V41.893a3.049,3.049,0,0,0,3.1,3.1H27.766a3.049,3.049,0,0,0,3.1-3.1h0V6.709a3.049,3.049,0,0,0-3.1-3.1H23.627v3.1H15.348Zm4.139,34.15A2.587,2.587,0,1,1,16.9,40.341,2.588,2.588,0,0,1,19.488,37.754Z" transform="translate(-5 -0.5)"/></svg>