<svg id="Smart_tv_technology" data-name="Smart tv technology" xmlns="http://www.w3.org/2000/svg" xmlns:xlink="http://www.w3.org/1999/xlink" width="195.741" height="187.264" viewBox="0 0 195.741 187.264">
  <defs>
    <clipPath id="clip-path">
      <path id="Path_826" data-name="Path 826" d="M3503.588,8957.512l65.127-7.113c4.012-.442,7.082-4.445,7.082-9.239v-39.238c0-4.794-3.07-8.8-7.082-9.237l-65.127-7.115c-4.567-.5-8.507,3.781-8.507,9.239v53.467C3495.081,8953.73,3499.021,8958.008,3503.588,8957.512Z" transform="translate(-3495.081 -8885.529)" fill="none"/>
    </clipPath>
    <linearGradient id="linear-gradient" x1="61.057" y1="-0.012" x2="60.785" y2="3.569" gradientUnits="objectBoundingBox">
      <stop offset="0" stop-color="#ab316d"/>
      <stop offset="1" stop-color="#792d3d"/>
    </linearGradient>
    <linearGradient id="linear-gradient-2" x1="13.322" y1="0.5" x2="14.322" y2="0.5" gradientUnits="objectBoundingBox">
      <stop offset="0" stop-color="#ffc444"/>
      <stop offset="0.996" stop-color="#f36f56"/>
    </linearGradient>
  </defs>
  <path id="Path_809" data-name="Path 809" d="M3338.5,8568.546a94.805,94.805,0,0,1-.588,10.547,93.213,93.213,0,0,1-22.433,50.946q-2.178,2.5-4.527,4.839a94.042,94.042,0,0,1-9.9,8.582c-.387.289-.778.579-1.171.863a93.129,93.129,0,0,1-42.8,17.069c-.022,0-.043,0-.066,0-.4.055-.8.1-1.2.148q-2.475.289-4.989.447h0q-2.951.189-5.95.187a93.485,93.485,0,0,1-74.111-36.4c.912-1.742,1.844-3.472,2.754-5.216a1.3,1.3,0,0,1,.094-.143c-.168-.451-.336-.906-.5-1.355-.811,1.5-1.612,3-2.437,4.482-.225.407-.451.812-.681,1.219a93.7,93.7,0,0,1-10.033-16.717c-.292-.626-.579-1.26-.858-1.9a94.037,94.037,0,0,1-4.459-62.679h0a92.954,92.954,0,0,1,9.01-21.529v0q.592-1.034,1.211-2.045,1.062-1.742,2.2-3.439.475-.713.966-1.414a93.7,93.7,0,0,1,9.183-11.21q1.352-1.418,2.766-2.777,2.25-2.161,4.638-4.176c1.582-1.325,3.208-2.61,4.874-3.833a94.627,94.627,0,0,1,8.529-5.58,93.152,93.152,0,0,1,44.183-12.512q1.334-.037,2.673-.037a94.108,94.108,0,0,1,12.251.8h0c.476.06.95.128,1.424.2a92.83,92.83,0,0,1,18.75,4.777h0q.916.337,1.825.7a93.442,93.442,0,0,1,12.679,6.127c.79.462,1.573.931,2.349,1.413a93.582,93.582,0,0,1,10.255,7.362q1.439,1.185,2.828,2.426h0q3.261,2.912,6.239,6.121c.094.1.185.2.276.3q.447.488.887.979a93.33,93.33,0,0,1,23.859,62.437Z" transform="translate(-3151.24 -8474.916)" fill="#47414b"/>
  <g id="Group_2397" data-name="Group 2397" transform="translate(66.497 34.567)">
    <g id="Group_2396" data-name="Group 2396" transform="translate(0 0)">
      <g id="Group_2395" data-name="Group 2395" opacity="0.5" style="mix-blend-mode: soft-light;isolation: isolate">
        <g id="Group_2394" data-name="Group 2394">
          <g id="Group_2393" data-name="Group 2393">
            <path id="Path_810" data-name="Path 810" d="M3812.468,9394.738c14.339,10.184,31.064,32.58,37.285,49.922l.391-.143c-6.244-17.409-23.038-39.895-37.434-50.119Z" transform="translate(-3812.468 -9336.496)" fill="#fff"/>
            <path id="Path_811" data-name="Path 811" d="M4224.256,8864.705l.412.062c2.693-17.876-5.664-34.943-13.149-46.122l-.347.234C4218.616,8829.993,4226.929,8846.963,4224.256,8864.705Z" transform="translate(-4171.076 -8818.645)" fill="#fff"/>
          </g>
        </g>
      </g>
    </g>
  </g>
  <path id="Path_812" data-name="Path 812" d="M3468.052,9873.252v5.892l-18.089,17.5H3444.4l6.957-14.784s3.247-1.941-3.71-1.941l-25.047,5.029.358-1.57,29.792-9.628S3462.023,9873.252,3468.052,9873.252Z" transform="translate(-3395.308 -9732.627)" fill="#38013c"/>
  <path id="Path_813" data-name="Path 813" d="M4609.61,9749.933l.193,2.237,10.426,6.889,1.6-1.543-6.112-6.2s-1.213-.358.6-.97l5.762-.415-.437-.351-7.458-.59S4611.595,9749.466,4609.61,9749.933Z" transform="translate(-4462.948 -9620.865)" fill="#38013c"/>
  <g id="Group_2400" data-name="Group 2400" transform="translate(15.114 16.476)">
    <g id="Group_2399" data-name="Group 2399" transform="translate(0 0)">
      <g id="Group_2398" data-name="Group 2398">
        <path id="Path_814" data-name="Path 814" d="M3308.64,8771.155c-3.893.6-7.112-1.659-7.112-5.044V8643.984c0-3.387,3.219-5.7,7.112-5.162l142.7,19.7c1.8.247,3.246,2.287,3.246,4.545V8744.5c0,2.261-1.448,4.325-3.246,4.605Z" transform="translate(-3301.527 -8638.744)" fill="#38013c"/>
        <path id="Path_815" data-name="Path 815" d="M3324.9,8772.368c-3.878.6-7.08-1.657-7.08-5.039v-121.84c0-3.384,3.2-5.687,7.08-5.154l142.108,19.634c1.793.25,3.236,2.282,3.236,4.539V8745.8c0,2.252-1.443,4.311-3.236,4.589Z" transform="translate(-3316.185 -8640.105)" fill="#fe0075"/>
        <path id="Path_816" data-name="Path 816" d="M3375.183,8802.6a1.19,1.19,0,0,1-1.459-1.079V8689.479a1.186,1.186,0,0,1,1.459-1.079l142.108,18.131a.917.917,0,0,1,.68.946v76.31a.918.918,0,0,1-.68.946Z" transform="translate(-3366.463 -8683.393)" fill="#38013c"/>
      </g>
    </g>
  </g>
  <g id="Group_2406" data-name="Group 2406" transform="translate(34.579 41.293)">
    <g id="Group_2405" data-name="Group 2405" transform="translate(0 0)">
      <g id="Group_2404" data-name="Group 2404" clip-path="url(#clip-path)">
        <g id="Group_2403" data-name="Group 2403" transform="translate(0 -4.681)">
          <g id="Group_2401" data-name="Group 2401">
            <path id="Path_817" data-name="Path 817" d="M3503.97,8915.482l68.06-7.562c4.193-.467,7.4-4.724,7.4-9.82v-41.7c0-5.1-3.208-9.354-7.4-9.815l-68.06-7.562c-4.773-.534-8.89,4.016-8.89,9.816v56.823C3495.081,8911.461,3499.2,8916.008,3503.97,8915.482Z" transform="translate(-3495.081 -8838.979)" fill="#fe0075"/>
          </g>
          <g id="Group_2402" data-name="Group 2402" transform="translate(5.885 11.381)">
            <path id="Path_818" data-name="Path 818" d="M4368.721,8969.1s.017-.047.048-.141a21.434,21.434,0,0,0,1.068-4.934c.085-1.705.446.373.61,1.444.039.259.3.2.56.255.556.109,1.063-.232,1.77-.634a23.537,23.537,0,0,1,2.084-1.405c.834-.08.616,1.592-.522,2.289a16.423,16.423,0,0,0-4.689,4l-.911-.922Z" transform="translate(-4286.746 -8962.242)" fill="url(#linear-gradient)"/>
            <path id="Path_819" data-name="Path 819" d="M3560.24,8957.876s-.016-.052-.048-.142a21.5,21.5,0,0,1-1.066-4.941c-.087-1.7-.447.379-.609,1.444-.042.265-.3.208-.563.26-.554.11-1.061-.234-1.768-.634-.822-.467-1.741-1.372-2.086-1.405-.832-.08-.614,1.588.524,2.289a16.459,16.459,0,0,1,4.689,4l.911-.923Z" transform="translate(-3553.597 -8952.148)" fill="#febbac"/>
            <path id="Path_820" data-name="Path 820" d="M3676.967,9001.762a51.71,51.71,0,0,1-21.047,14.8c-4.353,1.622-18.325,6.831-33.549.437a42.639,42.639,0,0,1-18.842-15.872c-.886.42-1.773.833-2.659,1.248-.353,4.428-.048,10.378,3.471,15.39,4.959,7.066,11.185,4.972,16.727,11.082,8.547,9.423-.156,21.114,8.147,29.176,4.91,4.771,7.66.4,20.594,7.062,4.891,2.518,9.407,5.671,14.577,4.276.945-.251,3.108-.836,4.164-2.657,1.771-3.052-.984-7.109-3.861-13.013-4.748-9.74-8.051-16.519-6.037-22.029,1.637-4.487,5.414-4.355,11.016-9.737a38.055,38.055,0,0,0,10.071-17.665C3678.813,9003.427,3677.891,9002.592,3676.967,9001.762Z" transform="translate(-3596.015 -8996.199)" fill="#fec200"/>
            <path id="Path_821" data-name="Path 821" d="M4070.163,9081.547c-.755-12.795-13.474-20.959-10.644-25.8,1.611-2.757,6.124-.794,9.762-4.933,2.745-3.119,1.028-5.206,3.2-9.065,3.769-6.711,11.453-4.866,16.313-11.453a14.731,14.731,0,0,0,2.4-5.2c.269.24.535.479.8.722a38.036,38.036,0,0,1-10.068,17.661c-5.6,5.384-9.379,5.257-11.016,9.741-2.014,5.511,1.289,12.286,6.035,22.026,2.876,5.9,5.633,9.964,3.862,13.016-1.058,1.82-3.219,2.4-4.166,2.66a11.78,11.78,0,0,1-7.742-.814A21.916,21.916,0,0,0,4070.163,9081.547Z" transform="translate(-4008.271 -9017.755)" opacity="0.3" fill="url(#linear-gradient-2)" style="mix-blend-mode: multiply;isolation: isolate"/>
            <path id="Path_822" data-name="Path 822" d="M3934.163,9120.465s1.524,6.276,4.145,6.289l2.624.013-7.866,4.476-4.3-3.7,3.277-1.032-.182-4.539Z" transform="translate(-3891.04 -9103.54)" fill="#feab8e"/>
            <path id="Path_823" data-name="Path 823" d="M3943.015,9077.5a5.721,5.721,0,0,0-.748,2.575c-.244,1.919.606,5.675.987,5.929s2.726.234,3.729-2.678l1.666-3.017Z" transform="translate(-3903.141 -9064.896)" fill="#febbac"/>
            <path id="Path_824" data-name="Path 824" d="M3929.226,9048.688c-.308-.456.827-1.207.534-2.1-.183-.555-.754-.663-2.813-1.64-1.839-.868-2.124-1.126-2.151-1.436-.066-.757,1.5-1.425,1.4-1.612-.118-.226-2.3,1.025-2.788.489-.336-.371.1-1.637.986-2.341.521-.412,1.263-.685,5.632-.077,3.02.421,3.556.676,4.038,1.126.872.817,1.6,2.32,1.107,3.264-.57,1.092-2.463.832-2.744,1.89-.143.538.306.771.157,1.312C3932.259,9048.746,3929.643,9049.3,3929.226,9048.688Z" transform="translate(-3886.117 -9030.821)" fill="#38013c"/>
            <path id="Path_825" data-name="Path 825" d="M3983.8,9118.793l.851-1.674s1.374-.518,1.226.171A2.391,2.391,0,0,1,3983.8,9118.793Z" transform="translate(-3940.534 -9100.361)" fill="#febbac"/>
          </g>
        </g>
      </g>
    </g>
    <path id="Path_827" data-name="Path 827" d="M3785.31,9141.952v21.107a2.862,2.862,0,0,0,4.618,2.261l16.514-11.256a2.863,2.863,0,0,0-.476-4.819l-16.512-9.851A2.863,2.863,0,0,0,3785.31,9141.952Z" transform="translate(-3756.123 -9113.587)" fill="#fff"/>
  </g>
  <g id="Group_2407" data-name="Group 2407" transform="translate(123.752 61.161)">
    <path id="Path_828" data-name="Path 828" d="M4718.7,9550.449a6.836,6.836,0,0,1-6.174,6.706,5.777,5.777,0,0,1-6.356-5.838,6.82,6.82,0,0,1,6.356-6.72A5.776,5.776,0,0,1,4718.7,9550.449Z" transform="translate(-4673.544 -9498.179)" fill="#6871ab"/>
    <path id="Path_829" data-name="Path 829" d="M4420.768,9083.158a56.078,56.078,0,0,0-37.2,11.88,4.395,4.395,0,0,0-.308,6.816l.208.194a5.21,5.21,0,0,0,6.7.3,46.573,46.573,0,0,1,30.595-10.421,40.935,40.935,0,0,1,26.8,10.858,3.494,3.494,0,0,0,5-.178l.151-.162a4.2,4.2,0,0,0-.223-5.814A49.327,49.327,0,0,0,4420.768,9083.158Z" transform="translate(-4381.792 -9083.083)" fill="#6871ab"/>
    <path id="Path_830" data-name="Path 830" d="M4527.965,9229.117a40.2,40.2,0,0,0-25.245,8.494,4.343,4.343,0,0,0-.334,6.684l.035.031a4.9,4.9,0,0,0,6.339.175,31.086,31.086,0,0,1,19.205-6.809,27.47,27.47,0,0,1,17.638,6.21,3.757,3.757,0,0,0,5.206-.332l.026-.03a4.2,4.2,0,0,0-.267-5.975A35.523,35.523,0,0,0,4527.965,9229.117Z" transform="translate(-4488.989 -9214.424)" fill="#6871ab"/>
    <path id="Path_831" data-name="Path 831" d="M4616.353,9385.7a4.852,4.852,0,0,0,6.05.293,15.351,15.351,0,0,1,8.115-2.7,13.708,13.708,0,0,1,7.823,2.049,4.3,4.3,0,0,0,5.474-.731l.018-.021a4.205,4.205,0,0,0-.578-6.325,21.893,21.893,0,0,0-12.736-3.743,24.558,24.558,0,0,0-13.532,4.385,4.345,4.345,0,0,0-.654,6.777Z" transform="translate(-4591.542 -9345.202)" fill="#6871ab"/>
  </g>
  <g id="Group_2414" data-name="Group 2414" transform="translate(78.007 132.839)">
    <g id="Group_2408" data-name="Group 2408" transform="translate(0 0)">
      <path id="Path_832" data-name="Path 832" d="M4026.844,9856.261c-25.279-9.16-51.7-12.263-76.975-21.423a11.97,11.97,0,0,0-3.474-.7,43.724,43.724,0,0,0-12.018.987c-2.166.526-3.442-1.569-5.257-1.06a3.347,3.347,0,0,0-1.907,1.352c-.629,1.084-.229,2.528,1.037,3.654q21.969,11.624,46.128,23.123,10.111,4.794,20.058,9.282a20.6,20.6,0,0,0,11.37,4.023c5.354.185,9.136-1.9,12.6-3.811,3.046-1.68,6.249-3.451,7.963-6.886C4027.734,9862.063,4029.7,9857.3,4026.844,9856.261Z" transform="translate(-3926.92 -9830.147)" fill="#6871ab"/>
      <path id="Path_833" data-name="Path 833" d="M4032.506,9822.2l-77.334-25.875a9.4,9.4,0,0,0-2.752-.486,43.231,43.231,0,0,0-12.316,1.417c-3.444.978-5.982,1.737-7.654,2.253a.947.947,0,0,0-.124,1.835c23.611,10.621,48.658,21.323,72.172,31.941a8.929,8.929,0,0,0,5.658.522,55.858,55.858,0,0,0,13.06-4.811,48.288,48.288,0,0,0,9.413-6.385C4032.778,9822.48,4032.712,9822.268,4032.506,9822.2Z" transform="translate(-3931.189 -9795.824)" fill="#dadcf0"/>
    </g>
    <g id="Group_2413" data-name="Group 2413" transform="translate(8.069 4.068)">
      <path id="Path_834" data-name="Path 834" d="M4711.37,10016.469l-.051.928h0a.262.262,0,0,0,.023.15,1.364,1.364,0,0,0,.825.559l2.341.818a4.59,4.59,0,0,0,2.818.1l2.56-1.1c.259-.11.365-.255.333-.412l.054-.866-.793.288a1.9,1.9,0,0,0-.191-.071l-2.321-.763a4.643,4.643,0,0,0-2.682-.09l-2.326.924-.177-.445Z" transform="translate(-4640.504 -9997.793)" fill="#fff"/>
      <path id="Path_835" data-name="Path 835" d="M4641,10043.885a.293.293,0,0,1,0-.043l.051-.93.281.016.489.329,2.533-1a4.768,4.768,0,0,1,2.866.1l2.343.838a1.464,1.464,0,0,0,.158.06l.019-.352.746.15-.042.883h0v.006h0c-.013.149-.139.286-.392.4l-2.884,1.232a4.7,4.7,0,0,1-3.022-.107l-2.353-.9c-.511-.2-.779-.441-.8-.672Z" transform="translate(-4577.255 -10021.381)" fill="#fff"/>
      <path id="Path_836" data-name="Path 836" d="M4560.272,10014.592h0l.065-.8.469-.253.389.476,2.42-.862a4.838,4.838,0,0,1,2.8.1l1.983.714a.262.262,0,0,1,.038.013l.077-.392.72.137-.046.857h0c.017.166-.124.327-.433.446l-2.841,1.088a4.813,4.813,0,0,1-2.952-.118l-1.983-.758C4560.487,10015.046,4560.248,10014.809,4560.272,10014.592Z" transform="translate(-4504.646 -9995.217)" fill="#fff"/>
      <path id="Path_837" data-name="Path 837" d="M4630.8,9990.613l.042-.773.48-.067.313.387,2.121-.759a4.711,4.711,0,0,1,2.631.092l1.861.611-.062-.1.394-.415.675.24-.07.854h0c.06.17-.051.334-.359.451l-2.536.966a4.687,4.687,0,0,1-2.76-.1l-1.982-.693C4630.974,9991.1,4630.715,9990.84,4630.8,9990.613Z" transform="translate(-4568.071 -9973.868)" fill="#fff"/>
      <path id="Path_838" data-name="Path 838" d="M4563.154,10072.645a33.937,33.937,0,0,1,3.189-1.261,4.858,4.858,0,0,1,3.072.114q1.177.46,2.354.927c.291-.057.58-.112.871-.172a2.534,2.534,0,0,1-.05.943.561.561,0,0,1-.127.244.934.934,0,0,1-.333.212l-3.278,1.405a4.866,4.866,0,0,1-3.25-.122l-2.355-1c-.1-.043-.762-.357-.732-.731l.053-.93Z" transform="translate(-4506.665 -10047.56)" fill="#fff"/>
      <path id="Path_839" data-name="Path 839" d="M4481.986,10040.964l.036-.842.807.307,2.935-1.049a4.983,4.983,0,0,1,3,.115l1.982.781v0l.025-.454.749.22-.05.868h0c.01.192-.154.371-.5.507l-3.213,1.228a4.937,4.937,0,0,1-3.163-.129l-1.974-.841c-.382-.161-.6-.357-.638-.548h0v0A.294.294,0,0,1,4481.986,10040.964Z" transform="translate(-4434.222 -10018.794)" fill="#fff"/>
      <path id="Path_840" data-name="Path 840" d="M4487.494,9987.233l.715.039.2.31,2.35-.761a4.929,4.929,0,0,1,2.75.106l1.521.544.137-.3.763.042-.054.865h0c.014.165-.138.322-.468.437l-2.784.961a4.946,4.946,0,0,1-2.885-.116l-1.656-.637c-.413-.157-.626-.353-.639-.536h0Z" transform="translate(-4439.141 -9971.55)" fill="#fff"/>
      <path id="Path_841" data-name="Path 841" d="M4409.673,10012.075l0,0,.051-.926.928.127.062.17,2.7-.879a5.065,5.065,0,0,1,2.93.122l1.441.568.917-.255-.054.943h0c-.017.171-.2.336-.542.456l-3.135,1.083a5.058,5.058,0,0,1-3.08-.13l-1.642-.7C4409.844,10012.479,4409.655,10012.271,4409.673,10012.075Z" transform="translate(-4369.19 -9992.892)" fill="#fff"/>
      <path id="Path_842" data-name="Path 842" d="M4557.842,9965.526l.848.05.1.291,1.964-.638a4.822,4.822,0,0,1,2.586.1l1.555.515c.02-.128.053-.22.107-.216.148,0,.811-.081.811-.081l-.058.851h0c.035.16-.093.307-.4.411l-2.493.863a4.837,4.837,0,0,1-2.706-.1l-1.666-.582c-.464-.165-.692-.372-.686-.561h-.009Z" transform="translate(-4502.417 -9952.14)" fill="#fff"/>
      <path id="Path_843" data-name="Path 843" d="M4491.391,9943.231l.822.047.148.282,1.978-.592a4.967,4.967,0,0,1,2.541.1l1.1.361c-.006-.067,0-.118.025-.111.094,0,1.022-.19,1.022-.19l-.05.921h-.01c0,.138-.137.27-.434.362l-2.5.786a4.9,4.9,0,0,1-2.657-.11l-1.4-.489c-.456-.16-.662-.359-.623-.544h-.006Z" transform="translate(-4442.655 -9932.133)" fill="#fff"/>
      <path id="Path_844" data-name="Path 844" d="M4237.516,9908.824v.012c.039.482.5.939,1.438,1.311,3.2,1.273,10.385,1.035,15.679-.473,3.164-.9,4.829-2.037,4.831-3.021h0l.051-.928-.519-.147-.055.18a4.168,4.168,0,0,0-1.158-.587c-3.03-1.059-9.356-.936-14.437.313-2.657.651-4.518,1.5-5.348,2.334l-.024-.1-.417.178-.033.719A.858.858,0,0,0,4237.516,9908.824Zm9.131-2.116a12.15,12.15,0,0,1,5.86-.142c1.233.446.635,1.253-1.39,1.8a12.065,12.065,0,0,1-6.056.165C4243.827,9908.063,4244.561,9907.239,4246.647,9906.708Z" transform="translate(-4214.349 -9897.598)" fill="#fff"/>
      <path id="Path_845" data-name="Path 845" d="M4421.4,9964.075l-.005,0,.052-.931,1,.054c.028,0,.089.169.132.29l2.078-.622a5.085,5.085,0,0,1,2.7.113l.946.34.05-.187,1.09-.048-.052.943-.01.006c-.021.145-.178.281-.5.381l-2.71.854a5.013,5.013,0,0,1-2.826-.119l-1.385-.535C4421.557,9964.452,4421.373,9964.258,4421.4,9964.075Z" transform="translate(-4379.741 -9950.015)" fill="#fff"/>
      <path id="Path_846" data-name="Path 846" d="M4345.144,9984.941l.755.1.08.229,2.723-.812a5.1,5.1,0,0,1,2.869.128l1.066.416c.067-.06.132-.109.158-.106.063,0,.79-.118.79-.118l-.05.846,0,0c.019.184-.168.364-.574.493l-2.966.935a5.066,5.066,0,0,1-3.009-.136l-1.365-.579c-.348-.147-.514-.322-.517-.492l-.008,0Z" transform="translate(-4311.108 -9969.427)" fill="#fff"/>
      <path id="Path_847" data-name="Path 847" d="M4232.812,9869.385l3.286,1.17.181-.252,1.125.062-.061.845h0c.059.207-.189.407-.746.539l-1.374.323a6.914,6.914,0,0,1-3.37-.161l-3.951-1.453.051-.928Z" transform="translate(-4205.704 -9866.058)" fill="#fff"/>
      <path id="Path_848" data-name="Path 848" d="M4175.1,9850.683l0-.029v0l.062-.855a5.44,5.44,0,0,0,.9.052c.045-.038.172.2.212.269l1.077-.214a7.136,7.136,0,0,1,3.194.17l3.825.407-.052.933-4.913,1.057-3.792-1.392c-.326-.119-.49-.256-.509-.389Z" transform="translate(-4158.208 -9848.436)" fill="#fff"/>
      <path id="Path_849" data-name="Path 849" d="M4087.73,9866.262l.06-.88,1.3-.239-.072.514,1.215-.242a7.216,7.216,0,0,1,3.358.17l3.852.5-.051.928-5.365,1.155-3.812-1.484c-.327-.13-.481-.274-.484-.42A0,0,0,0,0,4087.73,9866.262Z" transform="translate(-4079.628 -9862.237)" fill="#fff"/>
      <path id="Path_850" data-name="Path 850" d="M4145.879,9887.5l2.578.965-.04-.127.951-.31,1.093.612-.032.9h-.008c-.045.192-.336.374-.865.5l-1.508.356a7.1,7.1,0,0,1-3.552-.165l-3.978-1.552.05-.933Z" transform="translate(-4127.107 -9882.352)" fill="#fff"/>
      <path id="Path_851" data-name="Path 851" d="M4007.16,9843.79l.075-.831.214-.242.531.369-.007.152h0c.14-.037.3-.072.473-.1a9.65,9.65,0,0,1,3.755.1l.207-.361.724.036-.049.871a.238.238,0,0,1,0,.06h0c-.035.236-.454.466-1.225.61a8.939,8.939,0,0,1-4.166-.211c-.358-.142-.527-.3-.527-.453Z" transform="translate(-4007.16 -9842.068)" fill="#fff"/>
      <g id="Group_2412" data-name="Group 2412" transform="translate(0.052)">
        <path id="Path_852" data-name="Path 852" d="M4239.449,9900.91c3.2,1.273,10.388,1.036,15.679-.477,4.988-1.423,6.255-3.417,3.152-4.5-3.031-1.058-9.357-.936-14.437.31C4238.467,9897.564,4236.336,9899.67,4239.449,9900.91Zm6.108-1.615c-1.236-.472-.5-1.289,1.585-1.827a12.143,12.143,0,0,1,5.86-.138c1.233.443.634,1.247-1.389,1.8A12.106,12.106,0,0,1,4245.558,9899.295Z" transform="translate(-4214.844 -9889.29)" fill="#6871ab"/>
        <path id="Path_853" data-name="Path 853" d="M4008.207,9837.522a9.026,9.026,0,0,0,4.168.211c1.327-.255,1.619-.752.674-1.111a9.123,9.123,0,0,0-4.084-.213C4007.618,9836.654,4007.268,9837.151,4008.207,9837.522Z" transform="translate(-4007.679 -9836.277)" fill="#6871ab"/>
        <g id="Group_2409" data-name="Group 2409" transform="translate(16.89 0.43)">
          <path id="Path_854" data-name="Path 854" d="M4176.144,9841.838l3.791,1.394,4.915-1.058-3.773-1.342a7.09,7.09,0,0,0-3.193-.166l-1.39.275C4175.5,9841.139,4175.338,9841.541,4176.144,9841.838Z" transform="translate(-4175.63 -9840.559)" fill="#6871ab"/>
          <path id="Path_855" data-name="Path 855" d="M4233.328,9860.148l-4.91,1.077,3.952,1.451a6.933,6.933,0,0,0,3.372.16l1.373-.324c.955-.225,1.012-.657.143-.967Z" transform="translate(-4223.11 -9858.179)" fill="#6871ab"/>
        </g>
        <g id="Group_2410" data-name="Group 2410" transform="translate(8.103 2.126)">
          <path id="Path_856" data-name="Path 856" d="M4088.736,9858.808l3.812,1.483,5.365-1.153-3.8-1.427a7.168,7.168,0,0,0-3.359-.174l-1.521.3C4088.152,9858.057,4087.926,9858.49,4088.736,9858.808Z" transform="translate(-4088.249 -9857.418)" fill="#6871ab"/>
          <path id="Path_857" data-name="Path 857" d="M4146.4,9878.262l-5.363,1.173,3.983,1.555a7.041,7.041,0,0,0,3.546.164l1.512-.358c1.041-.247,1.164-.713.285-1.041Z" transform="translate(-4135.727 -9876.165)" fill="#6871ab"/>
        </g>
        <g id="Group_2411" data-name="Group 2411" transform="translate(33.985 9.788)">
          <path id="Path_858" data-name="Path 858" d="M4494.8,9933.734l-2.5.746c-.708.209-.646.609.143.886l1.4.492a4.942,4.942,0,0,0,2.658.106l2.5-.786c.684-.217.564-.616-.249-.885l-1.4-.458A4.924,4.924,0,0,0,4494.8,9933.734Z" transform="translate(-4477.105 -9933.612)" fill="#6871ab"/>
          <path id="Path_859" data-name="Path 859" d="M4425.137,9953.63l-2.71.808c-.756.225-.752.644.017.939l1.386.533a5.053,5.053,0,0,0,2.825.121l2.712-.854c.728-.228.662-.652-.135-.937l-1.4-.5A5.054,5.054,0,0,0,4425.137,9953.63Z" transform="translate(-4414.195 -9951.499)" fill="#6871ab"/>
          <path id="Path_860" data-name="Path 860" d="M4346.138,9977.109l1.369.578a5.1,5.1,0,0,0,3.006.136l2.964-.935c.78-.245.773-.688,0-.993l-1.384-.549a5.2,5.2,0,0,0-2.869-.124l-2.959.884C4345.454,9976.35,4345.394,9976.79,4346.138,9977.109Z" transform="translate(-4345.616 -9970.906)" fill="#6871ab"/>
          <path id="Path_861" data-name="Path 861" d="M4561.267,9955.989l-2.5.813c-.695.227-.593.65.234.94l1.666.585a4.833,4.833,0,0,0,2.707.1l2.492-.858c.667-.231.5-.656-.349-.937l-1.664-.547A4.891,4.891,0,0,0,4561.267,9955.989Z" transform="translate(-4536.917 -9953.624)" fill="#6871ab"/>
          <path id="Path_862" data-name="Path 862" d="M4488.587,9979.487l1.657.639a4.942,4.942,0,0,0,2.886.118l2.783-.961c.714-.247.6-.693-.236-1l-1.664-.595a4.912,4.912,0,0,0-2.75-.11l-2.786.9C4487.731,9978.731,4487.777,9979.178,4488.587,9979.487Z" transform="translate(-4473.632 -9973.028)" fill="#6871ab"/>
          <path id="Path_863" data-name="Path 863" d="M4410.743,10003.421l1.644.7a5.046,5.046,0,0,0,3.081.132l3.132-1.083c.77-.268.719-.739-.105-1.062l-1.653-.65a5.023,5.023,0,0,0-2.932-.123l-3.132,1.016C4409.976,10002.609,4409.955,10003.083,4410.743,10003.421Z" transform="translate(-4403.673 -9994.375)" fill="#6871ab"/>
          <path id="Path_864" data-name="Path 864" d="M4634.26,9980.16l-2.553.913c-.68.246-.53.7.344,1l1.98.7a4.753,4.753,0,0,0,2.762.1l2.537-.971c.648-.25.432-.7-.466-.993l-1.976-.651A4.734,4.734,0,0,0,4634.26,9980.16Z" transform="translate(-4602.554 -9975.347)" fill="#6871ab"/>
          <path id="Path_865" data-name="Path 865" d="M4564.12,10003.91l-2.855,1.022c-.732.261-.64.739.219,1.067l1.983.764a4.877,4.877,0,0,0,2.953.112l2.841-1.089c.7-.267.534-.74-.353-1.059l-1.983-.713A4.881,4.881,0,0,0,4564.12,10003.91Z" transform="translate(-4539.135 -9996.698)" fill="#6871ab"/>
          <path id="Path_866" data-name="Path 866" d="M4483.115,10032.442l1.976.842a4.948,4.948,0,0,0,3.16.127l3.215-1.231c.754-.286.651-.795-.223-1.14l-1.982-.778a4.935,4.935,0,0,0-3-.114l-3.219,1.147C4482.249,10031.579,4482.276,10032.086,4483.115,10032.442Z" transform="translate(-4468.703 -10020.277)" fill="#6871ab"/>
          <path id="Path_867" data-name="Path 867" d="M4714.787,10006.768l-2.585,1.025c-.664.264-.459.748.467,1.074l2.339.817a4.569,4.569,0,0,0,2.818.093l2.562-1.093c.627-.271.351-.749-.6-1.063l-2.324-.767A4.641,4.641,0,0,0,4714.787,10006.768Z" transform="translate(-4674.986 -9999.267)" fill="#6871ab"/>
          <path id="Path_868" data-name="Path 868" d="M4644.867,10033.02l-2.907,1.152c-.716.284-.567.795.345,1.147l2.353.905a4.727,4.727,0,0,0,3.024.105l2.883-1.23c.678-.291.454-.8-.489-1.145l-2.344-.837A4.722,4.722,0,0,0,4644.867,10033.02Z" transform="translate(-4611.75 -10022.86)" fill="#6871ab"/>
          <path id="Path_869" data-name="Path 869" d="M4563.762,10064.7l2.355,1a4.811,4.811,0,0,0,3.25.119l3.278-1.4c.735-.314.57-.86-.363-1.229l-2.355-.926a4.865,4.865,0,0,0-3.07-.113l-3.294,1.308C4562.784,10063.769,4562.867,10064.314,4563.762,10064.7Z" transform="translate(-4541.166 -10049.041)" fill="#6871ab"/>
        </g>
      </g>
    </g>
  </g>
</svg>
