<svg id="Group_2431" data-name="Group 2431" xmlns="http://www.w3.org/2000/svg" width="207.083" height="195.156" viewBox="0 0 207.083 195.156">
  <path id="Path_870" data-name="Path 870" d="M8513.609,9277.182l-10.258-.562a14.577,14.577,0,0,1-3.129,4.281c-.381.354-.8.684-1.369.407a1.227,1.227,0,0,1-.638-1.345c.049-.739.138-1.481.131-2.225a1.035,1.035,0,0,0-.4-.932q-2.215.144-4.4.4a85.735,85.735,0,0,0-19.27,4.564c.908-.189,1.818-.369,2.728-.551.6-.119,1.2-.174,1.8-.26l-.007.006c.869-.111,1.742-.219,2.613-.33a28.363,28.363,0,0,1,7.492.5c.031.008.057.039.088.061q1.891.417,3.779.843,1.777.469,3.56.939,1.241.539,2.48,1.071,2.076.957,4.156,1.909c.737.346,1.481.7,2.225,1.053l4.517,2.838c.963.586,1.349-.267,1.878-.755.268-.423.526-.845.789-1.269a7.525,7.525,0,0,0,.779-3.4,5.791,5.791,0,0,1,.1-.623l-.006.008Q8513.427,9280.5,8513.609,9277.182Zm74.532,68.645a85.379,85.379,0,0,0-9.66-25.8h0a59.013,59.013,0,0,0-8.491-4.405c-.786-.3-1.582-.587-2.377-.883l-.951-.251-.18-.011c-.272-2.916-.552-5.832-.812-8.751q-.13-1.521-.26-3.049l-19.713-15.137a3.9,3.9,0,0,1-3.745,2.452,4.162,4.162,0,0,1-4.186-4.5,2.942,2.942,0,0,1,.34-1.723l-22.511-6.335c-.067,1.073-.128,2.144-.187,3.219-.129,2.184-.24,4.363-.372,6.544a3.173,3.173,0,0,1-.9,2.292c-.921.883-1.713,1.9-2.6,2.817-1.371,1.431-2.788,2.815-4.159,4.245-.786.819-1.516,1.693-2.271,2.538-.05.208-.1.417-.142.623-.161.808.4,1.154.955,1.512.781.153,1.557.321,2.338.472,1.526.282,3.053.545,4.575.834a1.907,1.907,0,0,1,1.665,2.105c-.081,1.026-.076,2.062-.151,3.091-.046.669-.167,1.338-.257,2a1.078,1.078,0,0,1-.372.129c-.744-.031-1.49-.084-2.233-.135q.177-1.948.349-3.9c.03-.334.052-.578-.444-.6a11.521,11.521,0,0,1-1.648-.319c-1.29-.244-2.587-.449-3.871-.737a2.738,2.738,0,0,1-1.994-1.28,10.553,10.553,0,0,1-.867-2.392,4.057,4.057,0,0,1,.685-3.817c.446-.506.942-.973,1.422-1.447,1.067-1.051,2.137-2.088,3.257-3.178a19.924,19.924,0,0,0-2.2-1.7c-2.14-1.233-4.324-2.4-6.507-3.56a35.113,35.113,0,0,0-3.35-1.605,24.855,24.855,0,0,0-3.413-1.119c-1.892-.457-3.8-.808-5.706-1.2a16.881,16.881,0,0,0-5.654.026c-1.9.257-3.779.685-5.686.9a33.448,33.448,0,0,0-6.974,1.637c-2.272.771-4.468,1.781-6.716,2.615a24.44,24.44,0,0,0-6.472,3.92c-1.144.9-2.238,1.873-3.3,2.866-1.1,1.029-2.187,2.081-3.181,3.21a41.334,41.334,0,0,0-2.854,3.637c-1,1.449-1.945,2.945-2.8,4.483a35.64,35.64,0,0,0-1.8,3.9c-.54,1.341-.974,2.728-1.455,4.1-.268.035-.54.08-.808.117-.07.322-.136.647-.206.968.07-.32.136-.646.2-.968-1.1.486-2.208.963-3.311,1.456-.477.212-.946.442-1.423.665-.7.4-1.411.793-2.1,1.211-1.1.666-2.183,1.355-3.289,2.018-.124.075-.252.152-.378.227a85.518,85.518,0,0,0-10.5,30.267,87.269,87.269,0,0,0-.919,12.608,86.174,86.174,0,0,0,44.226,75.254c.264.152.525.295.791.439a85.575,85.575,0,0,0,36.629,10.3h0a.662.662,0,0,0,.107.007h0l.776.036c1.119.044,2.241.07,3.371.072h.213q2.487,0,4.93-.141a85.421,85.421,0,0,0,39.329-12.088c.084-.05.169-.1.258-.152q1.9-1.148,3.727-2.391a86.732,86.732,0,0,0,18.292-16.664,85.853,85.853,0,0,0,17.424-35.437q.554-2.423.968-4.9a87,87,0,0,0-.472-31.245Zm-70.074,42.223c-1.583.02-1.742-.365-1.953-1.988a26.358,26.358,0,0,1-.026-3.369c0-3.092,0-6.19,0-9.283a3,3,0,0,1,.175-1.091,1.15,1.15,0,0,1,1.218-.647q5.058.009,10.113,0c1.1,0,2.2-.012,3.307-.029a1.029,1.029,0,0,1,1.157,1.164q0,3.514,0,7.036h0v7.036a1.015,1.015,0,0,1-1.15,1.168C8526.624,9388.041,8522.349,9388,8518.067,9388.049Zm.326-49.039c2.238.1,4.467.272,6.7.473,1.689.149,3.381.357,5.064.594a1.283,1.283,0,0,1,.729.563,6.436,6.436,0,0,1,.73,2.8c.265,1.677.509,3.358.744,5.041a11.748,11.748,0,0,1,.071,1.415c.049,4.336.1,8.673.126,13.012,0,.563-.161,1.123-.215,1.689a.687.687,0,0,1-.739.678q-1.332.042-2.664.016a.532.532,0,0,1-.375-.266,59.425,59.425,0,0,0-4.347-8.643,50.812,50.812,0,0,0-3.51-4.666,26.8,26.8,0,0,0-3.29-3.366,10.129,10.129,0,0,0-2.75-1.524c-1.637-.673-3.335-1.211-4.994-1.821-.5-.188-.716-.118-.679.478.17,2.568.327,5.137.455,7.705.047.965-.032,1.938.013,2.9.034.854.205,1.711.238,2.568.07,1.491.091,2.991.114,4.489.034,2.661.031,5.318.091,7.978s.171,5.314.269,7.976c.037.9.105,1.807.122,2.715.089,4.394.1,8.791.276,13.18a50.722,50.722,0,0,0,.773,5.989,8.5,8.5,0,0,0,.783,2.358,3.188,3.188,0,0,0,1.926,1.477,25.719,25.719,0,0,0,5.677,1.186,1.309,1.309,0,0,1,1.356,1.5c-.016.793-.054,1.579-.111,2.367a1.081,1.081,0,0,1-1.141,1.1c-.217.012-.432.006-.651.006h-15.923c-5.388,0-10.772-.016-16.16.012-1.138.006-1.7-.477-1.569-1.58a17.806,17.806,0,0,0-.083-2.18c-.014-.754.314-1.072,1.063-1.233,1.233-.259,2.469-.524,3.68-.854a7.758,7.758,0,0,0,4.052-2.635,4.63,4.63,0,0,0,.884-1.828,21.124,21.124,0,0,0,.371-3.084q.164-2.285.235-4.586c.038-1.242,0-2.484.011-3.727q.054-12.816.12-25.621c.013-2.58.061-5.155.121-7.73.058-2.445.152-4.887.232-7.33.035-1,.062-2.007.122-3.006.024-.381-.112-.441-.463-.455a8.077,8.077,0,0,0-3.466.99c-3.34,1.465-5.8,3.967-8.112,6.686a20.334,20.334,0,0,0-3.736,5.9c-.514,1.338-.937,2.709-1.408,4.063-.265.781-.527,1.564-.833,2.326a.665.665,0,0,1-.468.352c-.73.013-1.459-.032-2.189-.063a1,1,0,0,1-.9-.712,9.774,9.774,0,0,1-.55-3.748c-.071-2.238-.065-4.486-.006-6.729.074-2.89.23-5.778.346-8.67.042-1.038.039-2.081.093-3.122a4.24,4.24,0,0,1,.234-1.376,1.676,1.676,0,0,1,1.509-.863c1.59-.212,3.169-.487,4.762-.663,1.346-.147,2.71-.182,4.063-.279,2.055-.145,4.114-.338,6.17-.439,1.537-.074,3.079-.047,4.616-.031,3,.026,5.992.095,8.989.107,1.654.006,3.31-.123,4.964-.1C8512.764,9338.813,8515.579,9338.883,8518.394,9339.01Zm-44.762,34.812c-.031-1.517.568-2.049,2.037-2.045,4.383.011,8.759,0,13.138,0,.909,0,1.248.379,1.146,1.283a6.645,6.645,0,0,0-.016.711q-.015,6.094-.01,12.189c0,1.262-.327,1.568-1.572,1.56-2.206-.012-4.414,0-6.624,0v.024h-6.983c-.693,0-1.058-.338-1.078-1.113-.036-1.321-.019-2.645-.019-3.966C8473.649,9379.579,8473.694,9376.7,8473.632,9373.821Zm69.174-68.653c-1.945-.555-5.238.436-5.743,3.27a17.318,17.318,0,0,0-.11,2.4c1.738.19,3.478.386,5.218.567,1.211.125,2.423.232,3.639.348A4.756,4.756,0,0,0,8542.806,9305.168Zm2.254-9.723a4.317,4.317,0,0,0-5.931-1.266,3.13,3.13,0,0,0-1.829,3.217,8.343,8.343,0,0,0,.352,1.607,4.146,4.146,0,0,0,6.423,1.99,4.844,4.844,0,0,0,1.67-3.73A6.237,6.237,0,0,0,8545.06,9295.445Z" transform="translate(-8399.732 -9253.686)" fill="#47414b"/>
  <path id="Path_871" data-name="Path 871" d="M8953.054,9084.84a23.2,23.2,0,0,1,6.664-11.83c4.463-4.078,9.729-4.855,15.343-3.176,3.083.924,4.769,3.539,6.249,6.241,2.317,4.245,2.007,8.76,1.369,13.276-1.085,7.7-3.945,14.913-6.626,22.135-1.166,3.143-3.313,5.949-5.187,8.792a5.687,5.687,0,0,1-4.294,2.3,14.519,14.519,0,0,1-8.328-1.444c-2.961-1.512-5.779-3.31-8.636-5.023-1.365-.817-2.676-1.719-4.008-2.59-4.086-2.676-8.043-5.577-10.416-9.945-2.107-3.883-3.468-8.121-2.26-12.613,1.088-4.036,4.087-6.278,7.947-7.533a12.4,12.4,0,0,1,9.735.457C8951.376,9084.271,8952.21,9084.519,8953.054,9084.84Z" transform="translate(-8857.753 -9069.004)" fill="#ff0075"/>
  <path id="Path_872" data-name="Path 872" d="M8936.1,9180.587s18.564-6.479,37.685,10.972c.39-8.8,11.777-22.738,12.072-28.129.07-1.267,1.037,12.427,1.037,12.427l-4.646,26.314-24.22-2.989s-19.08-13.941-20.631-15.267A4.02,4.02,0,0,1,8936.1,9180.587Z" transform="translate(-8860.964 -9152.925)" fill="#b2005c"/>
  <g id="Group_2429" data-name="Group 2429" transform="translate(39.888 28.133)">
    <g id="Group_2427" data-name="Group 2427" transform="translate(0 0)" style="mix-blend-mode: multiply;isolation: isolate">
      <circle id="Ellipse_59" data-name="Ellipse 59" cx="41.546" cy="41.546" r="41.546" fill="#ccc"/>
    </g>
    <g id="Group_2428" data-name="Group 2428" transform="translate(0 0)">
      <circle id="Ellipse_60" data-name="Ellipse 60" cx="41.546" cy="41.546" r="41.546" fill="#fafafa"/>
      <path id="Path_873" data-name="Path 873" d="M8775.758,9360.606c2.592,5.823-1.444,13.274-9.013,16.644s-15.808,1.385-18.4-4.441,1.44-13.271,9.01-16.641S8773.162,9354.785,8775.758,9360.606Z" transform="translate(-8733.153 -9351.119)" fill="#f2f2f2" style="mix-blend-mode: screen;isolation: isolate"/>
      <path id="Path_874" data-name="Path 874" d="M8705.32,9376.487c-.356-2.044-1.692-8.6-4.87-13.646,1.294-5.956.262-13.475.02-15.064a32.139,32.139,0,0,0,3.438-2.258c-.135-.25-.274-.5-.416-.749a30.315,30.315,0,0,1-3.42,2.257c-5.052-4.932-12.2-8.128-13.276-8.6a44.415,44.415,0,0,0-9.051-11.278,18.216,18.216,0,0,1,2.781-1.324c-.418-.141-.84-.273-1.266-.4a41.861,41.861,0,0,0-23.862,0c-.425.128-.847.261-1.264.4a18.322,18.322,0,0,1,2.777,1.324,44.4,44.4,0,0,0-9.047,11.278c-1.081.468-8.221,3.664-13.277,8.6a30.807,30.807,0,0,1-3.426-2.257c-.142.25-.282.5-.416.754a31.575,31.575,0,0,0,3.443,2.253c-.243,1.59-1.277,9.108.02,15.064-3.18,5.046-4.513,11.6-4.871,13.646-.862-.554-1.852-1.324-2.483-1.832.105.447.219.9.336,1.343a41.493,41.493,0,0,0,11.015,18.869c.288.281.577.558.872.827a11.421,11.421,0,0,1,.235-3.066,59.967,59.967,0,0,0,13.868,2.459c.666.583,4.206,3.446,13.726,7.817v3.874h.847V9402.9c9.52-4.371,13.06-7.234,13.726-7.817a59.529,59.529,0,0,0,13.868-2.466,11.23,11.23,0,0,1,.233,3.073c.294-.27.586-.546.873-.827A41.481,41.481,0,0,0,8707.465,9376c.117-.446.233-.9.34-1.343C8707.172,9375.163,8706.182,9375.934,8705.32,9376.487Zm-47.532-48.981c.853-.079,5.718-.538,9.542-.538s8.687.459,9.541.538a44.553,44.553,0,0,1,9.077,11.138c-2.8,2.258-7.44,9.184-8.361,10.57a60.455,60.455,0,0,0-20.52,0c-.916-1.387-5.559-8.312-8.361-10.57A44.4,44.4,0,0,1,8657.788,9327.506Zm-4.768,66.725a58.3,58.3,0,0,1-13.792-2.524c-4.5-4.21-8.656-13.491-9.136-14.585.16-1.011,1.411-8.3,4.733-13.682,1.086.382,4.908,1.537,14.347,2.832a66.4,66.4,0,0,0,8.68,14.861A81.157,81.157,0,0,0,8653.021,9394.23Zm14.31-13.267c-3.429,0-7.844-.255-8.776-.312a64.892,64.892,0,0,1-8.619-14.752c.831-1.6,6.465-12.527,7.288-15.849a59.117,59.117,0,0,1,20.211,0c.824,3.321,6.458,14.244,7.288,15.849a64.859,64.859,0,0,1-8.621,14.752C8675.171,9380.709,8670.756,9380.964,8667.33,9380.964Zm28.1,10.742a58.178,58.178,0,0,1-13.791,2.524,81.051,81.051,0,0,0-4.834-13.1,66.179,66.179,0,0,0,8.681-14.861c9.442-1.295,13.26-2.45,14.347-2.832,3.325,5.378,4.573,12.671,4.737,13.682C8704.081,9378.215,8699.926,9387.5,8695.426,9391.706Z" transform="translate(-8625.781 -9323.691)" fill="#38013c"/>
      <path id="Path_875" data-name="Path 875" d="M8749.848,9398.24a41.548,41.548,0,0,1-58.141,58.143,41.547,41.547,0,1,0,58.141-58.143Z" transform="translate(-8683.472 -9390.005)" fill="#e6e6e6" style="mix-blend-mode: multiply;isolation: isolate"/>
    </g>
  </g>
  <g id="Group_2430" data-name="Group 2430" transform="translate(113.826 2.501)">
    <path id="Path_876" data-name="Path 876" d="M9346.55,9110.286a67.766,67.766,0,0,1-37.98-15.243c-9.225-6.882-8.682-1.53-9.317.665s-1.485,9.188-8.373,22.083-4.155,22.551-1.981,35.413c1.668,9.827,5.994,14.435,9.693,16.873a9.7,9.7,0,0,0,1.516.868,8.836,8.836,0,0,0,1.785.457c4.358.8,10.674.458,18.669-5.493,10.464-7.788,19.113-12.883,23.05-26.956s8.157-19.722,9.218-21.745S9357.976,9111.689,9346.55,9110.286Z" transform="translate(-9286.484 -9091.648)" fill="#fec200"/>
    <path id="Path_877" data-name="Path 877" d="M9469.362,9518.378c-1.472-1.3-2.146-.539-4.52-1.485s-2.33-1.979-4.3-2.05a3.13,3.13,0,0,0-2.676,1.079c2.935-.81,3.425,1.111,4.3,1.983a5.4,5.4,0,0,0,3.9,1.568c1.231-.027,2.918-1.08,4.478,1.536A3.139,3.139,0,0,0,9469.362,9518.378Z" transform="translate(-9438.938 -9468.094)" fill="#231f20"/>
    <path id="Path_878" data-name="Path 878" d="M9372.188,9498.2a51.887,51.887,0,0,1-15.905-10.46c-1.56,20.216,9.343,24.795,10.042,25.069s11.74,4.511,24.584-11.173A51.861,51.861,0,0,1,9372.188,9498.2Z" transform="translate(-9348.438 -9443.986)" fill="#38013c"/>
    <path id="Path_879" data-name="Path 879" d="M9324.259,9441.37a22.24,22.24,0,0,1,.345-6.957s.4-2.836,5.109,2.051a10.1,10.1,0,0,0-4.42-5.444S9320.52,9429.349,9324.259,9441.37Z" transform="translate(-9318.814 -9393.46)" fill="#38013c"/>
    <path id="Path_880" data-name="Path 880" d="M9377.914,9321.018s-6.059-11.729-16.795-10.98c0,0,5.107-5.618,12.27-2.334S9378.139,9320.453,9377.914,9321.018Z" transform="translate(-9352.875 -9282.922)" fill="#38013c"/>
    <path id="Path_881" data-name="Path 881" d="M9417.475,9250.906s.284-14.32-15.287-12.907c0,0,5.806-2.479,11.382.492C9419.947,9241.888,9418.489,9248.78,9417.475,9250.906Z" transform="translate(-9389.405 -9220.971)" fill="#38013c"/>
    <path id="Path_882" data-name="Path 882" d="M9658.162,9588.047a22.344,22.344,0,0,0,4.561-5.268s1.666-2.327-5.113-2.049a10.108,10.108,0,0,1,6.957-.879S9669.17,9581.941,9658.162,9588.047Z" transform="translate(-9616.614 -9525.651)" fill="#38013c"/>
    <path id="Path_883" data-name="Path 883" d="M9595.822,9413.494s12.482-4.287,19.725,3.678c0,0,.193-7.589-7.254-10.17S9596.047,9412.934,9595.822,9413.494Z" transform="translate(-9561.652 -9371.735)" fill="#38013c"/>
    <path id="Path_884" data-name="Path 884" d="M9627.072,9343.75s9.7-10.547,19.97,1.242c0,0-2.481-5.806-8.566-7.514C9631.518,9335.525,9627.8,9341.516,9627.072,9343.75Z" transform="translate(-9589.45 -9309.98)" fill="#38013c"/>
    <path id="Path_885" data-name="Path 885" d="M9368.252,9665.168s5.53,12.738,19.278,7.736C9387.53,9672.9,9373.566,9682.1,9368.252,9665.168Z" transform="translate(-9359.219 -9601.814)" fill="#38013c"/>
  </g>
  <rect id="Rectangle_854" data-name="Rectangle 854" width="84.971" height="77.842" transform="translate(62.812 83.281)" fill="#fff"/>
  <path id="Path_886" data-name="Path 886" d="M8707.744,9637.379q-.06-5.854-.245-11.7c-.067-2.224-.243-4.439-.37-6.664-.1-1.066-.224-2.134-.319-3.205q-.243-2.688-.462-5.376c-.091-1.153-.166-2.307-.251-3.458q-.229-2.9-.46-5.8c-.084-1.014-.141-2.032-.255-3.04-.186-1.649-.354-3.306-.617-4.939q-.511-3.157-1.163-6.284c-.385-1.856-.858-3.694-1.294-5.535-.315-.092-.633-.174-.947-.26-.062,0-.121-.006-.18-.01-1.756-.265-3.515-.544-5.276-.789-1.095-.152-2.193-.263-3.293-.389-1.142-.129-2.279-.25-3.416-.389s-2.274-.307-3.416-.437c-1.605-.178-3.222-.316-4.83-.5a1.42,1.42,0,0,1-.444-.227c-1.213-.119-2.424-.225-3.641-.351-1.739-.181-3.478-.376-5.218-.562-.437-.014-.879,0-1.316-.033-.735-.058-1.468-.172-2.2-.222-.574-.038-1.149.011-1.725-.014-1.013-.028-2.029-.082-3.041-.14a1.267,1.267,0,0,1-.333-.1c-.837,0-1.674.014-2.516,0a2.083,2.083,0,0,1-.48-.123q-.93-.059-1.862-.115c-.994,0-1.986.009-2.979,0a2.166,2.166,0,0,1-.488-.126l-.043-.013-.044.013q-2.613.01-5.23.007a1.9,1.9,0,0,1-.472-.136c-.044-.038-.085-.076-.125-.114a1.071,1.071,0,0,1-.371.128c-.746-.026-1.492-.085-2.237-.128a8.97,8.97,0,0,1-1.022.128q-2.524.079-5.044.122a4.361,4.361,0,0,1-.685-.092q-1.484.042-2.973.092-7.69.186-15.379.379a2.663,2.663,0,0,1-.446.1c-1.943.087-3.882.152-5.826.244-1.232.059-2.465.149-3.7.222-.494.078-.987.191-1.484.226-1.591.1-3.189.164-4.785.242-.625.089-1.252.172-1.876.264-.435.07-.868.178-1.307.216q-1.687.152-3.379.244c-.977.052-1.954.071-2.928.111-.637.081-1.268.172-1.9.24-1.724.2-3.449.393-5.167.582-.278.032-.555.02-.83.028l-3.236.215c-.779.122-1.56.24-2.337.36l-3.318.534c-.137.02-.27.053-.4.059-.879.042-1.757.09-2.636.11a1.456,1.456,0,0,1-.517-.2c-.268.039-.539.082-.812.125-.066.323-.137.639-.2.965-.348,1.659-.707,3.316-1.047,4.979-.036.179-.072.359-.109.545-.058.282-.115.57-.17.854-.062.308-.122.62-.183.933-.358,1.878-.606,3.78-.895,5.674-.254,1.663-.5,3.325-.729,4.992-.139,1.027-.25,2.062-.327,3.094-.174,2.263-.326,4.532-.475,6.8-.057.845-.081,1.691-.126,2.532-.079,1.445-.153,2.9-.243,4.348-.105,1.662-.237,3.326-.354,4.987.043,2.423.115,4.85.115,7.27,0,2.268-.05,4.534-.117,6.8-.095,2.969-.293,5.932-.325,8.907-.03,2.177.078,4.362.23,6.544.167,2.358.468,4.708.679,7.073.089.96.069,1.926.141,2.892.137,1.894.3,3.79.458,5.684.081,1,.145,2,.242,2.993.105,1.066.259,2.134.358,3.205.126,1.33.23,2.667.334,4,.19,2.418.374,4.833.567,7.254a86.607,86.607,0,0,0,24.481,20.383c6.975.349,13.948.764,20.921,1.071,4.535.2,9.076.235,13.608.351a2.168,2.168,0,0,1,.477.114h4.142c.044-.032.089-.1.128-.1,1.416-.01,2.828-.01,4.244,0,.045,0,.088.067.129.1h4.144a2.7,2.7,0,0,1,.533-.114c7.039-.212,14.077-.365,21.117-.639,4.606-.185,9.209-.524,13.814-.821a3,3,0,0,0,1.221-.376c.563-.312,1.118-.634,1.667-.956.086-.052.17-.105.259-.154q1.9-1.153,3.731-2.392a86.634,86.634,0,0,0,18.284-16.662c.363-2.768.729-5.542,1.03-8.322.22-2.028.344-4.07.508-6.106q.23-2.962.454-5.93c.092-1.234.162-2.469.257-3.705.142-1.893.329-3.79.438-5.692q.139-2.385.151-4.78C8707.772,9645.46,8707.783,9641.419,8707.744,9637.379Zm-91.315,16.763v.02h-6.982c-.691,0-1.062-.331-1.082-1.11-.031-1.32-.013-2.646-.02-3.963,0-2.878.044-5.762-.015-8.639-.031-1.514.565-2.048,2.036-2.048,4.382.015,8.759,0,13.139,0,.91,0,1.244.379,1.148,1.289a7.07,7.07,0,0,0-.021.707q0,6.089,0,12.188c0,1.265-.332,1.571-1.574,1.561C8620.847,9654.133,8618.637,9654.142,8616.429,9654.142Zm50.331-7.673h-.01q0,3.524,0,7.039c0,.788-.37,1.169-1.152,1.162-4.279,0-8.558-.043-12.836.011-1.587.02-1.741-.367-1.954-1.989a26.344,26.344,0,0,1-.028-3.368c0-3.094,0-6.189.008-9.287a3.029,3.029,0,0,1,.175-1.091,1.157,1.157,0,0,1,1.222-.648q5.054.013,10.112,0c1.1,0,2.2-.011,3.3-.024a1.029,1.029,0,0,1,1.161,1.163C8666.76,9641.775,8666.76,9644.125,8666.76,9646.469Zm.274-15.245a.689.689,0,0,1-.737.684c-.887.022-1.776.028-2.662.015a.545.545,0,0,1-.375-.267,59.352,59.352,0,0,0-4.346-8.646,50.736,50.736,0,0,0-3.51-4.667,27.392,27.392,0,0,0-3.292-3.362,10.126,10.126,0,0,0-2.749-1.527c-1.642-.673-3.335-1.213-5-1.821-.5-.184-.712-.115-.676.475q.256,3.858.457,7.71c.047.967-.034,1.933.007,2.9.038.858.207,1.709.245,2.566.064,1.5.088,2.992.107,4.489.039,2.658.033,5.32.091,7.983s.174,5.313.274,7.97c.032.909.1,1.812.123,2.72.089,4.391.1,8.788.276,13.179a50.5,50.5,0,0,0,.769,5.986,8.475,8.475,0,0,0,.784,2.358,3.191,3.191,0,0,0,1.926,1.476,26.046,26.046,0,0,0,5.677,1.191,1.308,1.308,0,0,1,1.36,1.494c-.021.794-.057,1.582-.118,2.368a1.078,1.078,0,0,1-1.14,1.105c-.214.01-.43.006-.646.006h-15.925c-5.386,0-10.771-.017-16.16.014-1.141,0-1.7-.479-1.569-1.574a16.948,16.948,0,0,0-.085-2.187c-.011-.755.314-1.071,1.065-1.235,1.234-.259,2.466-.52,3.681-.854a7.737,7.737,0,0,0,4.048-2.633,4.589,4.589,0,0,0,.889-1.83,21.425,21.425,0,0,0,.37-3.081q.164-2.291.23-4.582c.041-1.245.01-2.49.016-3.73q.056-12.813.119-25.622c.014-2.58.061-5.155.121-7.734.058-2.441.153-4.882.23-7.322.036-1,.065-2.009.124-3.008.022-.384-.109-.447-.463-.457a8.14,8.14,0,0,0-3.468.989c-3.342,1.466-5.8,3.969-8.113,6.688a20.366,20.366,0,0,0-3.737,5.9c-.508,1.34-.936,2.708-1.4,4.064-.268.778-.53,1.563-.834,2.33a.675.675,0,0,1-.468.347c-.73.014-1.459-.028-2.188-.063a.989.989,0,0,1-.9-.711,9.713,9.713,0,0,1-.553-3.747c-.069-2.244-.062-4.493-.006-6.731.072-2.887.232-5.774.348-8.667.037-1.038.035-2.081.09-3.123a4.2,4.2,0,0,1,.238-1.379,1.67,1.67,0,0,1,1.509-.861c1.586-.212,3.17-.488,4.757-.662,1.351-.15,2.71-.183,4.066-.279,2.057-.144,4.115-.341,6.172-.441,1.537-.071,3.08-.045,4.615-.034,3,.028,5.991.1,8.988.11,1.654,0,3.313-.121,4.962-.1,2.818.043,5.635.115,8.447.241,2.233.1,4.467.274,6.691.471,1.7.149,3.385.36,5.068.6a1.29,1.29,0,0,1,.728.561,6.394,6.394,0,0,1,.728,2.8c.268,1.678.511,3.356.744,5.039a11,11,0,0,1,.075,1.413c.045,4.338.1,8.677.122,13.016A16.6,16.6,0,0,1,8667.034,9631.224Z" transform="translate(-8534.433 -9520.316)" fill="#fe0075"/>
  <path id="Path_887" data-name="Path 887" d="M9172.316,10750.479c.045-.033.088-.1.13-.1q2.127-.006,4.242,0c.044,0,.089.066.128.1Z" transform="translate(-9071.104 -10564.646)" fill="#fea9d0"/>
  <path id="Path_888" data-name="Path 888" d="M8295.829,9617.537c-.068.322-.136.642-.2.966-.351,1.659-.709,3.316-1.048,4.978-.037.18-.077.362-.109.544-.06.286-.115.57-.169.856-.063.308-.121.621-.183.93-.357,1.881-.607,3.784-.892,5.678-.256,1.66-.506,3.323-.734,4.99-.138,1.026-.249,2.06-.328,3.092-.175,2.266-.325,4.532-.474,6.8-.056.843-.079,1.688-.128,2.532-.072,1.446-.148,2.9-.242,4.348-.108,1.663-.233,3.321-.351,4.984q-7.075-2.131-14.15-4.258-1-.3-1.993-.605-8.826-2.651-17.645-5.315c-1.225-.37-1.344-.858-.819-2.036a6.6,6.6,0,0,1,1.734-2.088c1.148-1.08,2.233-2.225,3.413-3.265,2.171-1.919,4.358-3.823,6.6-5.652,1.889-1.537,3.845-3,5.828-4.417,2.511-1.8,5.053-3.541,7.624-5.251,1.213-.8,2.5-1.5,3.759-2.239.124-.072.253-.148.379-.225,1.1-.661,2.186-1.354,3.291-2.016.69-.42,1.4-.809,2.1-1.214.475-.222.943-.452,1.419-.665C8293.621,9618.5,8294.725,9618.022,8295.829,9617.537Z" transform="translate(-8256.065 -9556.944)" fill="#b2005c"/>
  <path id="Path_889" data-name="Path 889" d="M9814.334,9648.121c-2.65.689-5.308,1.338-7.953,2.041q-5.021,1.333-10.044,2.672-7.57,2.014-15.141,4.024c-.469.122-.591.31-.564.757.031.586,0,1.179-.008,1.773-.105-1.07-.223-2.134-.319-3.207q-.239-2.685-.458-5.374c-.094-1.151-.166-2.31-.253-3.461-.15-1.931-.309-3.862-.461-5.794-.078-1.014-.14-2.031-.255-3.037-.182-1.652-.354-3.307-.615-4.949-.339-2.1-.73-4.193-1.161-6.279-.389-1.857-.861-3.693-1.293-5.539.789.294,1.588.583,2.38.881a59.231,59.231,0,0,1,8.491,4.406h0c.257.146.506.289.763.434,2.482,1.4,4.814,3.056,7.189,4.629,3.168,2.1,6.348,4.168,9.45,6.352,3.184,2.236,6.286,4.6,9.42,6.909.361.264.685.583,1.023.878a3.741,3.741,0,0,1,.476.974A.792.792,0,0,1,9814.334,9648.121Z" transform="translate(-9607.932 -9560.689)" fill="#b2005c"/>
  <path id="Path_890" data-name="Path 890" d="M8950.205,9582.5c.7-.074,1.4-.152,2.093-.227.428-.041.859-.077,1.286-.118,1.979-.076,3.96-.159,5.938-.235.218-.009.435.011.649.018a2.962,2.962,0,0,1-.445.094c-1.942.085-3.886.154-5.825.242C8952.668,9582.33,8951.439,9582.422,8950.205,9582.5Z" transform="translate(-8873.528 -9525.256)" fill="#fd0074"/>
  <path id="Path_891" data-name="Path 891" d="M8807.535,9594.33c.563-.058,1.12-.123,1.689-.162q2.963-.211,5.924-.41c-.436.073-.866.18-1.308.219-1.123.1-2.253.179-3.381.242C8809.486,9594.272,8808.512,9594.292,8807.535,9594.33Z" transform="translate(-8746.618 -9535.792)" fill="#fd0074"/>
  <path id="Path_892" data-name="Path 892" d="M9292.41,9577.41q2.476.012,4.954.039c.25.006.5.059.752.088-1.744,0-3.489.012-5.232,0A1.855,1.855,0,0,1,9292.41,9577.41Z" transform="translate(-9177.932 -9521.25)" fill="#fd0074"/>
  <path id="Path_893" data-name="Path 893" d="M9344.852,9578.592l3.468.116c-1,.007-1.988.015-2.983.007A2.041,2.041,0,0,1,9344.852,9578.592Z" transform="translate(-9224.58 -9522.301)" fill="#fd0074"/>
  <path id="Path_894" data-name="Path 894" d="M8706.774,9606.843q1.613-.108,3.232-.214Q8708.388,9606.734,8706.774,9606.843Z" transform="translate(-8656.987 -9547.241)" fill="#fd0074"/>
  <path id="Path_895" data-name="Path 895" d="M9179.682,9577.884q1.482-.047,2.972-.091Q9181.164,9577.835,9179.682,9577.884Z" transform="translate(-9077.655 -9521.59)" fill="#fd0074"/>
  <path id="Path_896" data-name="Path 896" d="M9393.082,9580.725c1,.037,2,.077,3,.12-.841,0-1.679.013-2.515,0A2.065,2.065,0,0,1,9393.082,9580.725Z" transform="translate(-9267.482 -9524.198)" fill="#fd0074"/>
</svg>
