<svg xmlns="http://www.w3.org/2000/svg" width="33.284" height="33.178" viewBox="0 0 33.284 33.178">
  <g id="Component_48_1" data-name="Component 48 – 1" transform="translate(1.25 1.25)">
    <path id="Path_4632" data-name="Path 4632" d="M74.915,34.277h-12.4a4.341,4.341,0,0,1-4.341-4.341V9.426a4.34,4.34,0,0,1,4.341-4.341h20.51a4.341,4.341,0,0,1,4.341,4.341V21.34" transform="translate(-58.17 -5.085)" fill="none" stroke="#333" stroke-linecap="round" stroke-miterlimit="10" stroke-width="2.5"/>
    <line id="Line_1" data-name="Line 1" x2="10.979" transform="translate(11.915 7.213)" fill="none" stroke="#333" stroke-linecap="round" stroke-miterlimit="10" stroke-width="2.5"/>
    <line id="Line_2" data-name="Line 2" x2="1.17" transform="translate(6.043 7.213)" fill="none" stroke="#333" stroke-linecap="round" stroke-miterlimit="10" stroke-width="2.5"/>
    <line id="Line_3" data-name="Line 3" x2="10.979" transform="translate(11.915 14.596)" fill="none" stroke="#333" stroke-linecap="round" stroke-miterlimit="10" stroke-width="2.5"/>
    <line id="Line_4" data-name="Line 4" x2="1.17" transform="translate(6.043 14.596)" fill="none" stroke="#333" stroke-linecap="round" stroke-miterlimit="10" stroke-width="2.5"/>
    <line id="Line_5" data-name="Line 5" x2="1.17" transform="translate(6.043 22.681)" fill="none" stroke="#333" stroke-linecap="round" stroke-miterlimit="10" stroke-width="2.5"/>
    <line id="Line_6" data-name="Line 6" x2="1.17" transform="translate(12.426 22.681)" fill="none" stroke="#333" stroke-linecap="round" stroke-miterlimit="10" stroke-width="2.5"/>
    <circle id="Ellipse_33" data-name="Ellipse 33" cx="4.277" cy="4.277" r="4.277" transform="translate(19.575 19.404)" fill="none" stroke="#333" stroke-linecap="round" stroke-miterlimit="10" stroke-width="2.5"/>
    <line id="Line_7" data-name="Line 7" x1="3.435" y1="3.435" transform="translate(26.831 26.726)" fill="none" stroke="#333" stroke-linecap="round" stroke-miterlimit="10" stroke-width="2.5"/>
  </g>
</svg>
