<svg id="Group_7291" data-name="Group 7291" xmlns="http://www.w3.org/2000/svg" width="10.444" height="10.443" viewBox="0 0 10.444 10.443">
  <path id="Path_4643" data-name="Path 4643" d="M9.4,25.285H8.661a.277.277,0,0,0-.277.277v3.363a.324.324,0,0,1-.324.324H1.615a.324.324,0,0,1-.324-.324V22.48a.324.324,0,0,1,.324-.324H5.151a.277.277,0,0,0,.277-.277v-.738a.277.277,0,0,0-.277-.277H1.615A1.616,1.616,0,0,0,0,22.48v6.445a1.616,1.616,0,0,0,1.614,1.615H8.06a1.616,1.616,0,0,0,1.615-1.615V25.562A.277.277,0,0,0,9.4,25.285Z" transform="translate(-0.001 -20.096)" fill="#e20074"/>
  <path id="Path_4644" data-name="Path 4644" d="M124.283,0H121.35a.277.277,0,0,0-.277.277v.738a.277.277,0,0,0,.277.277h1.007L118.567,5.08a.277.277,0,0,0,0,.391l.522.522a.277.277,0,0,0,.391,0L123.269,2.2V3.21a.277.277,0,0,0,.277.277h.738a.277.277,0,0,0,.277-.277V.277A.277.277,0,0,0,124.283,0Z" transform="translate(-114.116)" fill="#e20074"/>
</svg>
