<svg xmlns="http://www.w3.org/2000/svg" width="25.493" height="30.16" viewBox="0 0 25.493 30.16">
  <g id="Group_7349" data-name="Group 7349" transform="translate(-3 -1)">
    <path id="Path_4631" data-name="Path 4631" d="M16.709,6.484H13.967V2.371A1.371,1.371,0,0,0,12.6,1H7.113A1.371,1.371,0,0,0,5.742,2.371V6.484A2.745,2.745,0,0,0,3,9.225v8.225a2.712,2.712,0,0,0,.381,1.371A2.712,2.712,0,0,0,3,20.193v8.225A2.745,2.745,0,0,0,5.742,31.16h20.01a2.745,2.745,0,0,0,2.742-2.742V20.193a2.712,2.712,0,0,0-.381-1.371,2.712,2.712,0,0,0,.381-1.371V9.225a2.745,2.745,0,0,0-2.742-2.742V2.371A1.371,1.371,0,0,0,24.381,1H18.9a1.371,1.371,0,0,0-1.371,1.371V6.484h-.817Zm3.559-2.742H23.01V6.484H20.268Zm-11.784,0h2.742V6.484H8.484ZM5.742,9.225h20.01v8.225H5.742Zm0,19.193V20.193h20.01v8.225Z" transform="translate(0)" fill="#333"/>
  </g>
</svg>
