<svg xmlns="http://www.w3.org/2000/svg" width="39" height="25.542" viewBox="0 0 39 25.542">
  <g id="icon_device_computer_default" data-name="icon/device/computer/default" transform="translate(0.5 -7.5)">
    <g id="Combined-Shape" transform="translate(0 8)">
      <path id="path-1" d="M38,24.875a3.176,3.176,0,0,1-3.167,3.167H3.167A3.176,3.176,0,0,1,0,24.875H38ZM29.292,3.5a4.764,4.764,0,0,1,4.75,4.75h0V22.5H31.667V8.25a2.333,2.333,0,0,0-2.375-2.375H8.708A2.333,2.333,0,0,0,6.333,8.25h0V22.5H3.958V8.25A4.764,4.764,0,0,1,8.708,3.5H29.292ZM11.875,10.229l5.779,5.621-2.613-.238,1.583,3.8-1.5.633-1.583-3.8L11.875,18.3Z" transform="translate(0 -3.5)" fill="#e20074" stroke="rgba(0,0,0,0)" stroke-miterlimit="10" stroke-width="1" fill-rule="evenodd"/>
    </g>
  </g>
</svg>
