<svg xmlns="http://www.w3.org/2000/svg" width="37.009" height="34.669" viewBox="0 0 37.009 34.669">
  <g id="Ikona_darek" transform="translate(-944.402 -1828.136)">
    <g id="Group_1589" data-name="Group 1589" transform="translate(944.552 1828.286)">
      <g id="gift" transform="translate(0 0)">
        <g id="Group_1149" data-name="Group 1149" transform="translate(0 0)">
          <path id="Path_518" data-name="Path 518" d="M34.415,25.446H27.155a8.914,8.914,0,0,0,1.28-1.026,4.8,4.8,0,0,0,0-6.75,4.85,4.85,0,0,0-6.729,0c-.993,1-3.634,5.061-3.269,7.775h-.165C18.634,22.732,16,18.669,15,17.671a4.85,4.85,0,0,0-6.729,0,4.8,4.8,0,0,0,0,6.75,9.079,9.079,0,0,0,1.283,1.026H2.294A2.3,2.3,0,0,0,0,27.741v5.736a1.148,1.148,0,0,0,1.147,1.147H2.294V48.389a2.3,2.3,0,0,0,2.294,2.294H32.12a2.3,2.3,0,0,0,2.294-2.294V34.623h1.147a1.148,1.148,0,0,0,1.147-1.147V27.741A2.3,2.3,0,0,0,34.415,25.446ZM9.9,19.288a2.446,2.446,0,0,1,3.476,0c1.546,1.556,3.084,5.529,2.549,6.082a.757.757,0,0,1-.424.076c-1.585,0-4.612-1.647-5.6-2.643A2.5,2.5,0,0,1,9.9,19.288Zm7.307,29.1H4.589V34.623H17.207Zm0-16.06H2.294V27.741H17.207Zm6.126-13.041A2.472,2.472,0,0,1,26.809,22.8c-.989,1-4.015,2.643-5.6,2.643a.754.754,0,0,1-.427-.076C20.25,24.818,21.787,20.844,23.333,19.288Zm8.787,29.1H19.5V34.623H32.12Zm2.294-16.06H19.5V27.741H34.415Z" transform="translate(0 -16.314)" fill="#333" stroke="#333" stroke-width="0.3"/>
        </g>
      </g>
    </g>
  </g>
</svg>
