<svg xmlns="http://www.w3.org/2000/svg" width="32.706" height="32.706" viewBox="0 0 32.706 32.706">
  <path id="Path_1637" data-name="Path 1637" d="M6.831,5.221H34.206V2H6.831A4.831,4.831,0,0,0,2,6.831V29.375a4.831,4.831,0,0,0,4.831,4.831h8.051a4.831,4.831,0,0,0,4.831-4.831V21.99L21.8,24.072A1.61,1.61,0,0,0,24.072,21.8l-4.831-4.831a1.615,1.615,0,0,0-2.28,0L12.13,21.8a1.61,1.61,0,0,0,2.277,2.277l2.085-2.082v7.385a1.611,1.611,0,0,1-1.61,1.61H6.831a1.611,1.611,0,0,1-1.61-1.61V11.365a4.782,4.782,0,0,0,1.61.3H30.985V30.985H23.07v3.221H32.6a1.611,1.611,0,0,0,1.61-1.61V10.051a1.611,1.611,0,0,0-1.61-1.61H6.831a1.61,1.61,0,1,1,0-3.221Z" transform="translate(-1.75 -1.75)" fill="#333" stroke="#fff" stroke-width="0.5"/>
</svg>
