<?xml version="1.0" encoding="utf-8"?>
<!-- Generator: Adobe Illustrator 24.0.1, SVG Export Plug-In . SVG Version: 6.00 Build 0)  -->
<svg version="1.1" id="Vrstva_1" xmlns="http://www.w3.org/2000/svg" xmlns:xlink="http://www.w3.org/1999/xlink" x="0px" y="0px"
	 viewBox="0 0 984 1476" style="enable-background:new 0 0 984 1476;" xml:space="preserve">
<style type="text/css">
	.st0{fill:#FFFFFF;}
</style>
<path class="st0" d="M566.4,146.52c43.66,0,87.33-0.27,130.98,0.11c22.44,0.19,42.33,7.8,58.31,24.06
	c11.08,11.27,17.79,24.99,20.27,40.5c1.37,8.58,2.01,17.37,2.04,26.07c0.17,62.99-0.04,125.99,0.12,188.98
	c0.18,68.59,0.63,137.19,0.97,205.78c0.33,68.26,0.67,136.52,1,204.78c0.33,68.43,0.67,136.85,1,205.28
	c0.34,71.26,0.89,142.52,0.84,213.78c-0.01,17.01-7,32.02-17.83,45.18c-12.77,15.53-30.04,22.94-48.98,27.39
	c-0.48,0.11-0.99,0.07-1.49,0.08c-9.27,0.34-18.53,0.96-27.8,0.96c-133.48,0.06-266.97,0.27-400.45-0.19
	c-21.2-0.07-41.61-5.84-57.72-20.91c-11.71-10.96-19.04-24.85-22.45-40.55c-1.28-5.89-2.02-12.02-2.03-18.04
	c-0.43-283.57-0.75-567.14-1.1-850.71c-0.01-5.9,1.34-10.82,6.94-14.17c6.49-3.89,14.48-3.5,19.84,1.91
	c6.97,7.04,13.77,14.24,23.18,18.18c11.67,4.88,23.43,8.89,36.44,8.62c19.32-0.39,38.67,0.27,57.99-0.23
	c14.14-0.36,28.34-1.22,42.36-3.06c11.46-1.51,21.41-7.4,30.53-14.53c14.83-11.61,22.22-27.42,25.63-45.41
	c0.82-4.34,1.07-8.85,1.08-13.28c0.09-33.83,0.12-67.66,0.02-101.49c-0.06-20.19-5.98-38.31-19.8-53.45c-2.56-2.8-4.69-6.1-7.6-8.43
	c-7.46-5.97-5.25-15.26-0.08-20.98c3.49-3.86,7.99-6.35,13.86-6.33C477.08,146.59,521.74,146.52,566.4,146.52z"/>
</svg>
