<?xml version="1.0" encoding="UTF-8"?><svg xmlns="http://www.w3.org/2000/svg" viewBox="0 0 397.22 147.1"><defs><style>.d{fill:#161616;}</style></defs><g id="a"/><g id="b"><g id="c"><g><path class="d" d="M18.2,10.19v.68l.05,25.36c0,3.61-.82,6.31-2.45,8.1-1.63,1.79-4.41,2.68-8.34,2.68-1.33,0-2.66-.18-3.97-.55-1.32-.37-2.41-.94-3.29-1.71l-.21-.21v-6.05l1.32,1.21c2,1.75,3.98,2.63,5.94,2.63,1.44,0,2.53-.18,3.29-.55,.75-.37,1.31-.89,1.66-1.55,.32-.7,.53-1.54,.63-2.53,.03-.67,.05-1.79,.05-3.37l-.05-6.47,.05-16.99v-.68h5.31Z"/><path class="d" d="M61.39,47.12l-3.68-7.42h-19.25c-1.54,3.09-2.68,5.42-3.42,7l-.21,.42h-6.16l.53-1L47.4,10.82l.68-1.37,.68,1.37c8.07,15.71,14.19,27.48,18.36,35.3l.53,1h-6.26Zm-6.26-12.68l-1.42-2.84c-2.95-5.93-4.86-9.71-5.73-11.36l-1.1,2.05c-.42,.91-.67,1.47-.74,1.68l-.84,1.79-4.26,8.68,7.05,.05,7.05-.05Z"/><path class="d" d="M101.95,47.12l-.21-.16c-3.3-2.7-7.15-5.79-11.57-9.26l-4.53-3.58c-.03,2.74-.05,6.84-.05,12.31v.68h-5.31V10.19h5.31l.05,12.94c4.84-3.79,10.17-8.05,15.99-12.78l.21-.16h8.05l-1.42,1.21c-2.49,2.07-6.26,5.1-11.31,9.1,.11-.11-.72,.56-2.47,2l-4.16,3.26c-1.4,1.09-2.51,2.03-3.31,2.84,1.23,1.02,3.28,2.65,6.15,4.89,3.54,2.81,5.79,4.61,6.73,5.42,.77,.67,1.96,1.63,3.58,2.89,1.86,1.4,3.52,2.77,5,4.1l1.31,1.21h-8.05Z"/><path class="d" d="M176.34,10.19V47.12h-4.84l-.26-.32-5.94-8.36c-.77-1.05-2.55-3.52-5.34-7.42-2.79-3.89-5.34-7.54-7.65-10.94v27.04h-5.31l-.16-36.98h5.16l.21,.32c2.49,3.82,5.04,7.58,7.65,11.28,2.61,3.7,5.92,8.3,9.92,13.81l1.26,1.74v-12.05c0-2.1-.04-5.3-.11-9.57l-.05-4.79v-.68h5.47Z"/><path class="d" d="M8.53,107.95v30.97H63.22v8.18H0V65.3H63.22v7.36H8.53v26.76H54.69v8.53H8.53Z"/><path class="d" d="M97.81,113.68v7.13h-27.58v-7.13h27.58Z"/><path class="d" d="M157.65,89.26c-.47-5.22-2.48-9.23-6.02-12.04-3.55-2.8-8.4-4.21-14.55-4.21-6.54,0-11.86,1.33-15.95,3.97-4.09,2.65-6.14,6.08-6.14,10.28,0,2.96,.99,5.34,2.98,7.13,1.99,1.79,4.48,3.14,7.48,4.03,3,.9,7.11,1.85,12.33,2.86,6.39,1.17,11.61,2.44,15.66,3.8,4.05,1.36,7.5,3.55,10.34,6.54,2.84,3,4.26,7.11,4.26,12.33,0,4.6-1.27,8.61-3.8,12.04-2.53,3.43-6.15,6.06-10.87,7.89-4.71,1.83-10.23,2.75-16.54,2.75-7.71,0-13.98-1.25-18.81-3.74-3.97-2.02-7.17-4.81-9.58-8.36-2.42-3.54-3.62-7.23-3.62-11.04v-1.64h8.06c.78,5.69,3.19,10.01,7.25,12.97,4.05,2.96,9.54,4.44,16.48,4.44s12.48-1.3,16.65-3.91c4.17-2.61,6.25-6.14,6.25-10.58,0-3.43-1.07-6.15-3.21-8.18-2.14-2.03-4.79-3.52-7.95-4.5-3.16-.97-7.46-2.01-12.91-3.1-6.16-1.25-11.14-2.51-14.96-3.8-3.82-1.29-7.03-3.31-9.64-6.08-2.61-2.76-3.91-6.52-3.91-11.28,0-4.28,1.24-8.12,3.74-11.51,2.49-3.39,6-6.02,10.52-7.89,4.52-1.87,9.66-2.8,15.43-2.8,7.09,0,13.11,1.46,18.05,4.38,4.95,2.92,8.24,6.95,9.87,12.1,.54,1.56,.82,3.12,.82,4.67v2.45h-7.71Z"/><path class="d" d="M229.75,99.42v-34.12h8.53v81.8h-8.53v-39.15h-46.16v39.15h-8.53V65.3h8.53v34.12h46.16Z"/><path class="d" d="M306,70.79c6.19,3.66,11.1,8.61,14.72,14.84,3.62,6.23,5.43,13.01,5.43,20.33s-1.81,14.08-5.43,20.28c-3.62,6.19-8.53,11.12-14.72,14.78-6.19,3.66-12.91,5.49-20.16,5.49s-14.08-1.83-20.28-5.49c-6.19-3.66-11.12-8.59-14.78-14.78-3.66-6.19-5.49-12.95-5.49-20.28s1.81-14.1,5.43-20.33c3.62-6.23,8.55-11.18,14.78-14.84,6.23-3.66,12.97-5.49,20.22-5.49s14.08,1.83,20.28,5.49Zm-3.91,63.69c4.99-2.96,8.94-6.99,11.86-12.1,2.92-5.1,4.38-10.65,4.38-16.65s-1.44-11.49-4.32-16.48c-2.88-4.99-6.82-8.94-11.8-11.86-4.99-2.92-10.44-4.38-16.36-4.38s-11.39,1.46-16.42,4.38c-5.03,2.92-9,6.89-11.92,11.92-2.92,5.03-4.38,10.54-4.38,16.54s1.46,11.53,4.38,16.59c2.92,5.07,6.87,9.08,11.86,12.04,4.99,2.96,10.44,4.44,16.36,4.44s11.37-1.48,16.36-4.44Z"/><path class="d" d="M392.13,101.06c-3.39,3.82-7.93,6.04-13.61,6.66l-36.81,.23v39.15h-8.53V65.18l44.64,.12c6.08,.39,10.83,2.44,14.26,6.14,3.43,3.7,5.14,8.71,5.14,15.02,0,5.92-1.69,10.79-5.08,14.61Zm-50.43-28.87v27.93h36.7c.54,0,1.6-.35,3.15-1.05,4.91-2.18,7.36-6.54,7.36-13.09,0-3.11-.57-5.67-1.69-7.65-1.13-1.99-2.9-3.49-5.32-4.5-1.56-.78-2.96-1.25-4.21-1.4l-35.99-.23Z"/><rect class="d" x="238.28" y="25.66" width="158.93" height="5.26"/><g><path class="d" d="M209.4,22.43c0,1.56-1.26,2.82-2.82,2.82s-2.82-1.26-2.82-2.82,1.26-2.82,2.82-2.82,2.82,1.26,2.82,2.82Z"/><path class="d" d="M228.4,41.99l-.59-1.11c-4.66-8.72-21.22-40.88-21.22-40.88l-21.64,41.99h9.76v-5.05l3.76-2.94c-.14-1.15-.22-2.33-.22-3.55,0-12.41,8.34-18.63,8.34-18.63,0,0,8.33,6.22,8.33,18.63,0,1.22-.09,2.4-.23,3.55l3.76,2.94v5.05h9.95Z"/></g><g><g><rect class="d" x="196.78" y="45.96" width="2.64" height="20.33"/><rect class="d" x="213.93" y="45.96" width="2.64" height="20.33"/></g><rect class="d" x="205.35" y="45.96" width="2.64" height="28.49"/></g></g></g></g></svg>