<svg xmlns="http://www.w3.org/2000/svg" width="43.584" height="43.584" viewBox="0 0 43.584 43.584"><defs><style>.a{fill:#e20074;fill-rule:evenodd;}</style></defs><path class="a" d="M22.792,1A21.792,21.792,0,1,0,44.584,22.792,21.793,21.793,0,0,0,22.792,1ZM41.514,21.306H36.561c-.3-5.943-2.08-11.292-4.755-14.957A18.673,18.673,0,0,1,41.514,21.306ZM21.306,4.17V21.306H11.9C12.391,12.59,16.354,5.358,21.306,4.17Zm0,20.108V41.415c-4.953-1.189-8.915-8.42-9.41-17.137Zm2.972,17.137V24.278h9.41C33.193,32.995,29.231,40.226,24.278,41.415Zm0-20.108V4.17c4.953,1.189,8.915,8.42,9.41,17.137ZM13.778,6.349A27.373,27.373,0,0,0,9.024,21.306H4.071A18.673,18.673,0,0,1,13.778,6.349ZM4.071,24.278H9.024c.3,5.943,2.08,11.292,4.755,14.957A18.673,18.673,0,0,1,4.071,24.278ZM31.905,39.235A27.373,27.373,0,0,0,36.66,24.278h4.953A19.137,19.137,0,0,1,31.905,39.235Z" transform="translate(-1 -1)"/></svg>