<svg xmlns="http://www.w3.org/2000/svg" width="46.464" height="28.061" viewBox="0 0 46.464 28.061"><defs><style>.a{fill:#e20074;fill-rule:evenodd;}</style></defs><path class="a" d="M41.527,5.4a7.868,7.868,0,0,0-8.712,1.742l-21.2,21.2A4.933,4.933,0,0,1,6.1,29.408,4.877,4.877,0,0,1,2.9,24.762v-12A5.119,5.119,0,0,1,6.1,8.015,4.972,4.972,0,0,1,11.616,9.08l7.55,7.55L21.2,14.6l-7.55-7.454A7.9,7.9,0,0,0,4.937,5.4,7.9,7.9,0,0,0,0,12.758V24.665a7.9,7.9,0,0,0,4.937,7.357,7.9,7.9,0,0,0,8.712-1.742l21.2-21.1a4.933,4.933,0,0,1,5.518-1.065,5.119,5.119,0,0,1,3.194,4.743V24.762A5.119,5.119,0,0,1,40.366,29.5a4.91,4.91,0,0,1-5.518-1.065L27.3,20.89l-2.033,2.033,7.55,7.55a7.99,7.99,0,0,0,13.649-5.614v-12.1A7.9,7.9,0,0,0,41.527,5.4Z" transform="translate(0 -4.778)"/></svg>