<svg xmlns:xlink="http://www.w3.org/1999/xlink" xmlns="http://www.w3.org/2000/svg" width="60" height="60"><defs><symbol id="student-hat-mix" xmlns="http://www.w3.org/2000/svg" viewBox="0 0 45.32 39.69">
    <path fill="#fff3f8" stroke="#E20074" stroke-width="1.6px" d="M22.66,32.06c5.93,0,11.14-1.92,14.17-4.82V15.13H8.49V27.24C11.51,30.14,16.73,32.06,22.66,32.06Z"></path>
    <path fill="#fff3f8" stroke="#E20074" stroke-width="1.6px" d="M23.09,2.87l20.55,7.82a.14.14,0,0,1,.09.12v3.54a.15.15,0,0,1-.09.13L23.18,22.35a1.77,1.77,0,0,1-1.32,0L1.68,14.48a.13.13,0,0,1-.09-.13V10.81a.13.13,0,0,1,.09-.12L22,2.87A1.6,1.6,0,0,1,23.09,2.87Z"></path>
    <path fill="#fff3f8" stroke="#E20074" stroke-width="1.6px" d="M43.73,10.72l-20.6,7.93a1.71,1.71,0,0,1-1.22,0L1.59,10.72"></path>
    <line fill="#fff3f8" stroke="#E20074" stroke-width="1.6px" x1="22.42" y1="18.6" x2="22.42" y2="22.17"></line>
    <circle fill="#fff3f8" stroke="#E20074" stroke-width="1.6px" cx="33.34" cy="34.93" r="1.99"></circle>
    <polyline stroke="#E20074" stroke-width="1.6px" fill="none" stroke-linecap="round" points="22.46 9.5 33.25 14.47 33.44 32.78"></polyline>
  </symbol></defs><g>
    <path fill="#fff3f8" stroke="#E20074" stroke-width="1.6px" d="M22.66,32.06c5.93,0,11.14-1.92,14.17-4.82V15.13H8.49V27.24C11.51,30.14,16.73,32.06,22.66,32.06Z"></path>
    <path fill="#fff3f8" stroke="#E20074" stroke-width="1.6px" d="M23.09,2.87l20.55,7.82a.14.14,0,0,1,.09.12v3.54a.15.15,0,0,1-.09.13L23.18,22.35a1.77,1.77,0,0,1-1.32,0L1.68,14.48a.13.13,0,0,1-.09-.13V10.81a.13.13,0,0,1,.09-.12L22,2.87A1.6,1.6,0,0,1,23.09,2.87Z"></path>
    <path fill="#fff3f8" stroke="#E20074" stroke-width="1.6px" d="M43.73,10.72l-20.6,7.93a1.71,1.71,0,0,1-1.22,0L1.59,10.72"></path>
    <line fill="#fff3f8" stroke="#E20074" stroke-width="1.6px" x1="22.42" y1="18.6" x2="22.42" y2="22.17"></line>
    <circle fill="#fff3f8" stroke="#E20074" stroke-width="1.6px" cx="33.34" cy="34.93" r="1.99"></circle>
    <polyline stroke="#E20074" stroke-width="1.6px" fill="none" stroke-linecap="round" points="22.46 9.5 33.25 14.47 33.44 32.78"></polyline>
  </g></svg>