<svg xmlns="http://www.w3.org/2000/svg" width="40.483" height="40.483" viewBox="0 0 40.483 40.483"><defs><style>.a{fill:#e20074;stroke:#e20074;stroke-width:0.5px;}</style></defs><g transform="translate(0.25 0.25)"><path class="a" d="M349.745,89.646a.676.676,0,0,0-.956.957l.023.022a.676.676,0,0,0,.969-.939A.5.5,0,0,0,349.745,89.646Z" transform="translate(-320.437 -84.332)"/><path class="a" d="M117.628,116.713a.647.647,0,1,0-.916.915l3.495,3.495a.644.644,0,0,0,.458.19h0a.643.643,0,0,0,.458-.19h0a.648.648,0,0,0,0-.916Z" transform="translate(-108.827 -109.021)"/><path class="a" d="M74.269,202.874H69.327a.647.647,0,0,0,0,1.295h4.942a.647.647,0,0,0,0-1.295Z" transform="translate(-65.201 -187.76)"/><path class="a" d="M204.169,69.324a.647.647,0,1,0-1.295,0v4.942a.647.647,0,0,0,1.295,0Z" transform="translate(-187.566 -65.392)"/><path class="a" d="M345.75,344.832l-3.495-3.495a.647.647,0,0,0-.915.916l3.495,3.495a.647.647,0,1,0,.915-.916Z" transform="translate(-313.653 -313.845)"/><path class="a" d="M296.021,372.577a.648.648,0,0,0-.647.647v4.942a.647.647,0,1,0,1.295,0v-4.942A.648.648,0,0,0,296.021,372.577Z" transform="translate(-271.911 -342.503)"/><path class="a" d="M378.165,295.374h-4.942a.647.647,0,1,0,0,1.295h4.942a.647.647,0,1,0,0-1.295Z" transform="translate(-342.308 -272.106)"/><g transform="translate(0 0)"><path class="a" d="M249.753,51.861a7.485,7.485,0,0,0,8.028-1.676l5.993-5.993a7.485,7.485,0,0,0-10.586-10.586L247.2,39.6a7.486,7.486,0,0,0-1.676,8.028l.042.107-.412.412.879.79,4.711-4.711a1.7,1.7,0,0,1,1.207-.5h0a1.708,1.708,0,0,1,1.207,2.916l-4.582,4.582.879.79.195-.195Zm3.2-3.345.058-.008a3.669,3.669,0,0,0,2.038-1l.027-.027,5.992-5.993a3.655,3.655,0,0,0-4.442-5.731.59.59,0,0,0,.6,1.016,2.475,2.475,0,0,1,3.009,3.881L254.8,46.082l.029-.465a2.885,2.885,0,0,0-2.881-3.07c-.052,0-.109,0-.183.007l-.464.028,1.64-1.64a.59.59,0,0,0-.834-.834l-2.2,2.2a3.621,3.621,0,0,0-1.032,2.066l-.008.058-2.388,2.388-.079-.3a6.328,6.328,0,0,1,1.632-6.091l5.993-5.993a6.306,6.306,0,0,1,8.918,8.918l-5.993,5.993a6.325,6.325,0,0,1-6.091,1.632l-.3-.079Z" transform="translate(-225.98 -31.417)"/><path class="a" d="M49.657,251.955l-.042-.107.773-.773-.879-.79-5.071,5.071a1.7,1.7,0,0,1-1.207.5h0a1.708,1.708,0,0,1-1.208-2.916L46.965,248l-.879-.79-.555.555-.107-.042A7.485,7.485,0,0,0,37.4,249.4L31.4,255.39a7.486,7.486,0,0,0,10.586,10.586l5.993-5.993A7.485,7.485,0,0,0,49.657,251.955Zm-6.244,5.074.465-.029-5.433,5.432a2.456,2.456,0,0,1-1.749.724h0a2.474,2.474,0,0,1-1.75-4.223l5.432-5.433-.029.465a2.884,2.884,0,0,0,3.064,3.064Zm-2.259,8.112a6.306,6.306,0,1,1-8.917-8.917l5.993-5.993a6.328,6.328,0,0,1,6.091-1.632l.3.079-2.388,2.388-.058.008a3.619,3.619,0,0,0-2.066,1.032L34.112,258.1a3.654,3.654,0,0,0,2.584,6.238h0a3.628,3.628,0,0,0,2.584-1.07l5.993-5.992a3.671,3.671,0,0,0,1.032-2.066l.008-.058,2.389-2.388.079.3a6.329,6.329,0,0,1-1.632,6.091Z" transform="translate(-29.214 -228.182)"/></g></g></svg>