<svg xmlns="http://www.w3.org/2000/svg" width="21.425" height="38.658" viewBox="0 0 21.425 38.658"><defs><style>.a{fill:#e20074;stroke:#e20074;stroke-width:0.5px;}</style></defs><g transform="translate(0.25 0.25)"><g transform="translate(0 0)"><g transform="translate(0 0)"><path class="a" d="M137.848,8H123.077A3.081,3.081,0,0,0,120,11.077v32a3.081,3.081,0,0,0,3.077,3.077h14.771a3.081,3.081,0,0,0,3.077-3.077v-32A3.081,3.081,0,0,0,137.848,8Zm-3.212,1.231-.369,1.846h-7.607l-.369-1.846Zm5.059,33.849a1.848,1.848,0,0,1-1.846,1.846H123.077a1.848,1.848,0,0,1-1.846-1.846v-32a1.848,1.848,0,0,1,1.846-1.846h1.957l.516,2.582a.615.615,0,0,0,.6.495h8.616a.615.615,0,0,0,.6-.495l.517-2.582h1.957a1.848,1.848,0,0,1,1.846,1.846Z" transform="translate(-120 -8)"/><path class="a" d="M156.308,456h-3.693a.615.615,0,0,0,0,1.231h3.693a.615.615,0,0,0,0-1.231Z" transform="translate(-149.538 -421.535)"/><path class="a" d="M225.231,456h-.615a.615.615,0,1,0,0,1.231h.615a.615.615,0,1,0,0-1.231Z" transform="translate(-215.999 -421.535)"/></g></g><g transform="translate(5.993 13.874)"><path class="a" d="M74.568,62v2.164h2.164V62H74.568Z" transform="translate(-67.968 -57.08)"/><path class="a" d="M8.757,12.89,8.65,16.662l.567.1a4.281,4.281,0,0,1,.875-2.474,2.759,2.759,0,0,1,2.085-.882v7.89a2.047,2.047,0,0,1-.3,1.343,1.373,1.373,0,0,1-.867.324q-.181.015-.618.015v.6h5.277v-.6q-.437,0-.619-.015a1.374,1.374,0,0,1-.867-.324,2.045,2.045,0,0,1-.3-1.343V13.4a2.761,2.761,0,0,1,2.086.882,4.279,4.279,0,0,1,.875,2.474l.567-.1-.107-3.772Z" transform="translate(-8.65 -12.89)"/><path class="a" d="M10.815,62H8.65v2.164h2.165Z" transform="translate(-8.65 -57.08)"/></g></g></svg>