<svg xmlns="http://www.w3.org/2000/svg" width="21.425" height="38.657" viewBox="0 0 21.425 38.657">
  <g id="Group_3272" data-name="Group 3272" transform="translate(-400.75 -1696.75)">
    <g id="Group_3254" data-name="Group 3254" transform="translate(400.999 1697)">
      <g id="Ikona_Telefon" transform="translate(0 0)">
        <g id="Group_943" data-name="Group 943" transform="translate(0 0)">
          <g id="Smartphone" transform="translate(0 0)">
            <path id="Path_331" data-name="Path 331" d="M137.848,8H123.077A3.081,3.081,0,0,0,120,11.077v32a3.081,3.081,0,0,0,3.077,3.077h14.771a3.081,3.081,0,0,0,3.077-3.077v-32A3.081,3.081,0,0,0,137.848,8Zm-3.212,1.231-.369,1.846h-7.607l-.369-1.846Zm5.059,33.849a1.848,1.848,0,0,1-1.846,1.846H123.077a1.848,1.848,0,0,1-1.846-1.846v-32a1.848,1.848,0,0,1,1.846-1.846h1.957l.516,2.582a.615.615,0,0,0,.6.495h8.616a.615.615,0,0,0,.6-.495l.517-2.582h1.957a1.848,1.848,0,0,1,1.846,1.846Z" transform="translate(-120 -8)" fill="#e20074"/>
            <path id="Path_331_-_Outline" data-name="Path 331 - Outline" d="M123.077,7.75h14.771a3.336,3.336,0,0,1,3.327,3.327v32a3.336,3.336,0,0,1-3.327,3.327H123.077a3.336,3.336,0,0,1-3.327-3.327v-32A3.336,3.336,0,0,1,123.077,7.75Zm14.771,38.158a2.835,2.835,0,0,0,2.827-2.827v-32a2.835,2.835,0,0,0-2.828-2.827h-14.77a2.835,2.835,0,0,0-2.827,2.827v32a2.835,2.835,0,0,0,2.827,2.827ZM123.077,8.981h2.162l.557,2.783a.366.366,0,0,0,.358.294h8.616a.366.366,0,0,0,.358-.294l.557-2.783h2.162a2.1,2.1,0,0,1,2.1,2.1v32a2.1,2.1,0,0,1-2.1,2.1H123.077a2.1,2.1,0,0,1-2.1-2.1v-32A2.1,2.1,0,0,1,123.077,8.981Zm1.753.5h-1.752a1.6,1.6,0,0,0-1.6,1.6v32a1.6,1.6,0,0,0,1.6,1.6h14.77a1.6,1.6,0,0,0,1.6-1.6v-32a1.6,1.6,0,0,0-1.6-1.6H136.1l-.476,2.381a.868.868,0,0,1-.849.7h-8.616a.868.868,0,0,1-.849-.7Zm1.155-.5h8.956l-.469,2.346h-8.017Zm8.346.5h-7.736l.269,1.346h7.2Z" transform="translate(-120 -8)" fill="#e20074"/>
            <path id="Path_332" data-name="Path 332" d="M156.308,456h-3.693a.615.615,0,0,0,0,1.231h3.693a.615.615,0,0,0,0-1.231Z" transform="translate(-149.538 -421.535)" fill="#e20074"/>
            <path id="Path_332_-_Outline" data-name="Path 332 - Outline" d="M152.615,455.75h3.693a.865.865,0,0,1,0,1.731h-3.693a.865.865,0,0,1,0-1.731Zm3.693,1.231a.365.365,0,0,0,0-.731h-3.693a.365.365,0,0,0,0,.731Z" transform="translate(-149.538 -421.535)" fill="#e20074"/>
            <path id="Path_333" data-name="Path 333" d="M225.231,456h-.615a.615.615,0,1,0,0,1.231h.615a.615.615,0,1,0,0-1.231Z" transform="translate(-215.999 -421.535)" fill="#e20074"/>
            <path id="Path_333_-_Outline" data-name="Path 333 - Outline" d="M224.615,455.75h.615a.865.865,0,1,1,0,1.731h-.615a.865.865,0,1,1,0-1.731Zm.615,1.231a.365.365,0,1,0,0-.731h-.615a.365.365,0,1,0,0,.731Z" transform="translate(-215.999 -421.535)" fill="#e20074"/>
          </g>
        </g>
      </g>
    </g>
    <g id="Page-1" transform="translate(431.608 1680.614)">
      <g id="Icon_Refresh_01_Color-1024" data-name="Icon Refresh 01 Color-1024" transform="translate(-25.927 29.683)">
        <g id="ok-sign-circle-color">
          <path id="Oval" d="M-20.146,42.1a6.641,6.641,0,0,1-6.633-6.633,6.64,6.64,0,0,1,6.633-6.633,6.641,6.641,0,0,1,6.633,6.633A6.641,6.641,0,0,1-20.146,42.1Zm0-11.562a4.934,4.934,0,0,0-4.929,4.929,4.935,4.935,0,0,0,4.929,4.929,4.935,4.935,0,0,0,4.929-4.929A4.935,4.935,0,0,0-20.146,30.535Z" transform="translate(25.927 -29.683)" fill="#e20074"/>
          <path id="Stroke-181" d="M-19.028,41.205a1.034,1.034,0,0,1-.721-.293l-1.984-1.929a.852.852,0,0,1-.017-1.2.852.852,0,0,1,1.2-.017l1.518,1.475,3.1-3.017a.852.852,0,0,1,1.2.017.852.852,0,0,1-.017,1.2L-18.3,40.911A1.038,1.038,0,0,1-19.028,41.205Z" transform="translate(24.016 -32.536)" fill="#e20074"/>
        </g>
      </g>
    </g>
  </g>
</svg>
