<svg xmlns="http://www.w3.org/2000/svg" width="32.5" height="29.841" viewBox="0 0 32.5 29.841">
  <g id="Group_3265" data-name="Group 3265" transform="translate(-703.75 -2085.75)">
    <g id="Group_3264" data-name="Group 3264" transform="translate(695 2075.671)">
      <path id="Path_670" data-name="Path 670" d="M23.46,19.09c-2,0-5.21-2-6.05-2.87a3.451,3.451,0,0,1,4.88-4.88h0c1.05,1,4,5.76,2.44,7.31A1.759,1.759,0,0,1,23.46,19.09Zm-3.61-7.66a2.34,2.34,0,0,0-2.35,2.33v.02a2.34,2.34,0,0,0,.69,1.66c1.25,1.25,5.06,3.13,5.76,2.43s-1.18-4.5-2.43-5.76A2.381,2.381,0,0,0,19.85,11.43Z" fill="#e20074"/>
      <path id="Path_670_-_Outline" data-name="Path 670 - Outline" d="M23.562,19.343l-.109,0c-2.106,0-5.355-2.047-6.223-2.946a3.7,3.7,0,0,1,5.235-5.232c.9.855,2.939,4.07,2.961,6.179a1.981,1.981,0,0,1-.52,1.487l-.01.01A2.006,2.006,0,0,1,23.562,19.343ZM19.85,10.579a3.2,3.2,0,0,0-2.263,5.464c.8.832,3.932,2.8,5.873,2.8h.014a1.306,1.306,0,0,0,1.451-1.495c-.021-1.947-1.985-5.04-2.808-5.825l0,0A3.18,3.18,0,0,0,19.85,10.579Zm3.6,7.693h0c-1.341,0-4.336-1.558-5.433-2.655a2.606,2.606,0,0,1-.763-1.837v-.02a2.6,2.6,0,0,1,2.589-2.58h.012a2.618,2.618,0,0,1,1.844.751,12.068,12.068,0,0,1,2,3.166c.479,1.063.944,2.438.433,2.95A.929.929,0,0,1,23.446,18.272ZM19.839,11.68a2.094,2.094,0,0,0-2.089,2.081v.019a2.1,2.1,0,0,0,.616,1.483c1.014,1.014,3.863,2.509,5.08,2.509a.491.491,0,0,0,.327-.078c.129-.129.184-.8-.535-2.39a11.546,11.546,0,0,0-1.9-3.017,2.117,2.117,0,0,0-1.489-.606Z" fill="#e20074"/>
      <path id="Path_671" data-name="Path 671" d="M26.54,19.09a1.759,1.759,0,0,1-1.27-.44c-.68-.68-.6-2,.26-3.88a12.984,12.984,0,0,1,2.18-3.43,3.451,3.451,0,0,1,4.88,4.88h0C31.75,17.05,28.58,19.09,26.54,19.09Zm3.61-7.66a2.381,2.381,0,0,0-1.67.68,12.783,12.783,0,0,0-1.95,3.11c-.67,1.49-.73,2.41-.48,2.65.7.7,4.51-1.18,5.76-2.43a2.348,2.348,0,0,0-1.64-4.01Z" fill="#e20074"/>
      <path id="Path_671_-_Outline" data-name="Path 671 - Outline" d="M26.438,19.343a2.006,2.006,0,0,1-1.334-.506l-.011-.01c-.771-.771-.7-2.17.208-4.158a13.216,13.216,0,0,1,2.221-3.494l.011-.011A3.7,3.7,0,0,1,32.767,16.4c-.864.854-4.11,2.938-6.22,2.943Zm-1-.875a1.508,1.508,0,0,0,1.084.372h.014c1.893,0,5.009-1.943,5.874-2.8a3.2,3.2,0,0,0-4.522-4.531,12.715,12.715,0,0,0-2.133,3.358l0,0C24.957,16.624,24.848,17.866,25.442,18.468Zm1.112-.2a.925.925,0,0,1-.679-.223c-.388-.377-.229-1.472.427-2.931a13.02,13.02,0,0,1,1.987-3.169l.016-.017a2.616,2.616,0,0,1,1.841-.751h.024a2.59,2.59,0,0,1,2.58,2.6,2.606,2.606,0,0,1-.764,1.836C30.89,16.714,27.9,18.272,26.554,18.272Zm2.109-5.991a12.523,12.523,0,0,0-1.9,3.04c-.744,1.656-.609,2.3-.536,2.369l0,0c.024.024.1.078.327.078,1.217,0,4.066-1.5,5.079-2.508a2.1,2.1,0,0,0,.617-1.483,2.09,2.09,0,0,0-2.081-2.1h-.023A2.119,2.119,0,0,0,28.663,12.281Z" fill="#e20074"/>
      <path id="Path_672" data-name="Path 672" d="M39.9,25.13H10.09A1.11,1.11,0,0,1,9,24H9V19.59a1.48,1.48,0,0,1,1.48-1.48H39.53A1.48,1.48,0,0,1,41,19.59V24a1.11,1.11,0,0,1-1.09,1.13ZM10.47,19.21a.389.389,0,0,0-.38.38V24H39.9V19.59a.389.389,0,0,0-.38-.38Z" fill="#e20074"/>
      <path id="Path_672_-_Outline" data-name="Path 672 - Outline" d="M39.912,25.38H10.09A1.363,1.363,0,0,1,8.75,24V19.59a1.732,1.732,0,0,1,1.73-1.73H39.53a1.734,1.734,0,0,1,1.72,1.73V24a1.361,1.361,0,0,1-1.336,1.38ZM10.48,18.36a1.231,1.231,0,0,0-1.23,1.23V24a.86.86,0,0,0,.844.88H39.908A.86.86,0,0,0,40.75,24V19.59a1.233,1.233,0,0,0-1.222-1.23Zm29.67,5.89H9.84V19.584a.639.639,0,0,1,.624-.624H39.526a.639.639,0,0,1,.624.624V24.25Zm-29.81-.5H39.65V19.594a.139.139,0,0,0-.134-.134H10.474a.139.139,0,0,0-.134.134Z" fill="#e20074"/>
      <rect id="Rectangle_816" data-name="Rectangle 816" width="1.1" height="20.55" transform="translate(24.45 18.43)" fill="#e20074"/>
      <path id="Rectangle_816_-_Outline" data-name="Rectangle 816 - Outline" d="M-.25-.25h1.6V20.8H-.25Zm1.1.5H.25V20.3h.6Z" transform="translate(24.45 18.43)" fill="#e20074"/>
      <path id="Path_673" data-name="Path 673" d="M37.19,39.67H12.81A1.851,1.851,0,0,1,11,37.82V24H39V37.82A1.851,1.851,0,0,1,37.19,39.67ZM12.06,25.13V37.82a.75.75,0,0,0,.75.75H37.19a.75.75,0,0,0,.75-.75V25.13Z" fill="#e20074"/>
      <path id="Path_673_-_Outline" data-name="Path 673 - Outline" d="M37.193,39.92H12.8a2.112,2.112,0,0,1-2.055-2.1V23.75h28.5V37.82a2.112,2.112,0,0,1-2.055,2.1Zm-24.38-.5H37.187a1.61,1.61,0,0,0,1.563-1.6V24.25H11.25V37.82A1.61,1.61,0,0,0,12.813,39.42Zm24.377-.6H12.81a1,1,0,0,1-1-1V24.88H38.19V37.82A1,1,0,0,1,37.19,38.82ZM12.31,25.38V37.82a.5.5,0,0,0,.5.5H37.19a.5.5,0,0,0,.5-.5V25.38Z" fill="#e20074"/>
    </g>
  </g>
</svg>
