<svg xmlns="http://www.w3.org/2000/svg" width="42.993" height="35.278" viewBox="0 0 42.993 35.278">
  <g id="Group_3205" data-name="Group 3205" transform="translate(0.25 0.25)">
    <g id="Page-1" transform="translate(-0.001 0)">
      <g id="Icon_Refresh_01_Color-1024" data-name="Icon Refresh 01 Color-1024" transform="translate(0 0)">
        <g id="mobile-internet-color" transform="translate(0)">
          <path id="Path_649" data-name="Path 649" d="M43.413,13.88,29.975,8.757a.631.631,0,1,0-.45,1.18l11.89,4.533-8.231,3.138L22.833,12.921a.631.631,0,1,0-.521,1.15l9.211,4.171-8.951,3.413L3.729,14.47,22.572,7.285l8.581,3.251a.631.631,0,0,0,.45-1.18L22.8,6.02a.629.629,0,0,0-.45,0L1.732,13.88a.632.632,0,0,0-.406.59v2.882a.632.632,0,0,0,.406.59L8.17,20.4v2.187a.631.631,0,1,0,1.262,0V20.877L22.348,25.8a.635.635,0,0,0,.45,0l9.736-3.711v9.987a21.382,21.382,0,0,1-23.1-2.046v-7.9a.631.631,0,0,0-1.262,0v8.2a.632.632,0,0,0,.236.492,22.643,22.643,0,0,0,24.127,2.662v2.554a2.4,2.4,0,1,0,1.262,0V32.825a22.472,22.472,0,0,0,2.943-2,.63.63,0,0,0,.237-.492V20.4l6.437-2.454a.631.631,0,0,0,.406-.59V14.47A.631.631,0,0,0,43.413,13.88ZM34.3,38.359a1.136,1.136,0,1,1-1.136-1.136A1.137,1.137,0,0,1,34.3,38.359ZM2.589,15.386l19.353,7.378V24.3L2.589,16.917ZM23.2,24.3V22.764l9.33-3.557v1.531Zm12.51,5.735A21.117,21.117,0,0,1,33.8,31.359V21.607l1.918-.731ZM33.8,20.257V18.726l8.762-3.34v1.531Z" transform="translate(-1.326 -5.979)" fill="#e20074"/>
          <path id="Path_649_-_Outline" data-name="Path 649 - Outline" d="M22.572,5.729a.876.876,0,0,1,.314.058l8.8,3.337a.889.889,0,0,1,.164.083L43.5,13.646a.886.886,0,0,1,.567.823v2.882a.886.886,0,0,1-.567.823l-6.276,2.393v9.769a.876.876,0,0,1-.331.688,22.775,22.775,0,0,1-2.85,1.945v2.892a2.648,2.648,0,1,1-1.762,0V33.888A22.89,22.89,0,0,1,8.25,31.024a.878.878,0,0,1-.33-.688V20.568L1.643,18.175a.887.887,0,0,1-.567-.823V14.47a.887.887,0,0,1,.567-.823l20.616-7.86A.876.876,0,0,1,22.572,5.729ZM29.156,8.7,22.709,6.254a.38.38,0,0,0-.272,0L1.821,14.113a.384.384,0,0,0-.245.356v2.882a.384.384,0,0,0,.246.356l6.6,2.515v1.115a.88.88,0,0,1,.762,0v-.824l13.255,5.054a.389.389,0,0,0,.271,0l10.076-3.841v10.5l-.134.07a21.632,21.632,0,0,1-23.371-2.07l-.1-.075V23.377a.88.88,0,0,1-.762,0v6.96a.38.38,0,0,0,.142.3,22.393,22.393,0,0,0,23.861,2.633l.36-.176v3.145l-.184.05a2.148,2.148,0,1,0,1.13,0l-.184-.05V32.679l.126-.072a22.291,22.291,0,0,0,2.911-1.974.379.379,0,0,0,.143-.3V20.223l6.6-2.516a.379.379,0,0,0,.245-.356V14.47a.379.379,0,0,0-.245-.356L32.258,9.895a.879.879,0,0,1-.29.705l10.15,3.87-8.941,3.409L22.73,13.149a.377.377,0,0,0-.157-.034.381.381,0,0,0-.157.728l9.758,4.418-9.6,3.661L3.027,14.47,22.572,7.018l6.3,2.387a.871.871,0,0,1,.284-.708Zm.134,1.4L22.573,7.553,4.431,14.47l18.142,6.917,8.3-3.165L22.209,14.3a.881.881,0,1,1,.727-1.6l10.257,4.644,7.521-2.868-11.278-4.3A.888.888,0,0,1,29.29,10.1Zm2.328-.447-1.732-.66a.431.431,0,0,0-.135-.025.381.381,0,0,0-.23.685l1.721.652a.38.38,0,0,0,.135.025.384.384,0,0,0,.357-.246A.38.38,0,0,0,31.618,9.651ZM22.572,26.092a.879.879,0,0,1-.314-.058L9.682,21.24v8.669a21.131,21.131,0,0,0,22.6,2.017V22.452l-9.4,3.582A.872.872,0,0,1,22.572,26.092Zm-13.39-3.96a.381.381,0,1,0-.762,0v.45a.381.381,0,1,0,.762,0ZM2.339,15.023l19.853,7.569v2.066L2.339,17.089Zm19.353,7.914L2.839,15.749v1l18.853,7.188Zm21.115-7.914v2.066L33.545,20.62V18.554Zm-.5,1.722v-1L34.045,18.9v1Zm-9.523,2.1V20.91l-9.83,3.748V22.592Zm-.5,1.722v-1l-8.83,3.366v1Zm3.68-.052v9.638l-.1.075a21.448,21.448,0,0,1-1.941,1.344l-.381.234V21.435Zm-.5,9.393V21.24l-1.418.54v9.126C34.531,30.593,35.006,30.259,35.463,29.907Zm-2.3,7.065a1.386,1.386,0,1,1-1.385,1.386A1.388,1.388,0,0,1,33.163,36.973Zm0,2.272a.886.886,0,1,0-.885-.886A.887.887,0,0,0,33.163,39.245Z" transform="translate(-1.326 -5.979)" fill="#e20074"/>
        </g>
      </g>
    </g>
  </g>
</svg>
