<svg xmlns="http://www.w3.org/2000/svg" width="26.583" height="29" viewBox="0 0 26.583 29">
  <g id="Group_3271" data-name="Group 3271" transform="translate(4852 2012)">
    <g id="Group_3270" data-name="Group 3270" transform="translate(-4852 -2012)">
      <path id="Path_674" data-name="Path 674" d="M158.863,421.438a4.537,4.537,0,0,1-4.531-4.531.906.906,0,0,1,1.813,0,2.719,2.719,0,0,0,5.438,0,.906.906,0,0,1,1.813,0A4.537,4.537,0,0,1,158.863,421.438Z" transform="translate(-146.78 -392.438)" fill="#e20074"/>
      <path id="Path_675" data-name="Path 675" d="M43.052,85.75H23.115a2.115,2.115,0,0,1-1.375-3.722.826.826,0,0,1,.1-.073,8.121,8.121,0,0,0,2.789-6.126V72.458A8.468,8.468,0,0,1,33.083,64a3.642,3.642,0,0,1,.6.036.906.906,0,1,1-.3,1.787,1.9,1.9,0,0,0-.3-.011,6.654,6.654,0,0,0-6.646,6.646V75.83a9.938,9.938,0,0,1-3.508,7.577c-.018.015-.034.028-.053.041a.3.3,0,0,0-.064.187.305.305,0,0,0,.3.3H43.052a.306.306,0,0,0,.3-.3.289.289,0,0,0-.065-.187c-.018-.013-.034-.027-.052-.041a9.936,9.936,0,0,1-3.508-7.577V74.513a.906.906,0,0,1,1.813,0V75.83a8.124,8.124,0,0,0,2.792,6.13.881.881,0,0,1,.093.07,2.114,2.114,0,0,1-1.375,3.72Z" transform="translate(-21 -60.375)" fill="#e20074"/>
      <path id="Path_676" data-name="Path 676" d="M283.042,12.083a6.042,6.042,0,1,1,6.042-6.042A6.048,6.048,0,0,1,283.042,12.083Zm0-10.271a4.229,4.229,0,1,0,4.229,4.229A4.234,4.234,0,0,0,283.042,1.813Z" transform="translate(-262.5)" fill="#e20074"/>
    </g>
  </g>
</svg>
