<svg xmlns="http://www.w3.org/2000/svg" width="39.153" height="39.321" viewBox="0 0 39.153 39.321"><defs><style>.a{fill:#e20074;fill-rule:evenodd;}</style></defs><g transform="translate(-2.036 -2)"><path class="a" d="M29.589,24.217l-3.342,3.342a1.494,1.494,0,0,1-1.966.1,59.283,59.283,0,0,1-4.522-4.03,59.283,59.283,0,0,1-4.03-4.522,1.494,1.494,0,0,1,.1-1.966L19.169,13.8,12.582,2c-2.163.2-6.783.688-9.241,4.424-2.261,3.637-.983,8.061-.59,9.339,1.671,4.62,5.21,9.83,10.027,14.746,4.915,4.915,10.125,8.454,14.647,10.027a15.539,15.539,0,0,0,4.424.786,9.2,9.2,0,0,0,4.915-1.278c3.736-2.359,4.227-6.98,4.424-9.241Zm5.7,13.173c-2.458,1.573-5.9.59-6.783.295-4.129-1.376-8.946-4.719-13.566-9.339C10.42,23.823,7.077,19.006,5.7,14.779,5.406,13.8,4.423,10.454,6,8c.885-1.475,2.654-2.458,5.112-2.851l4.522,7.963-1.868,1.769a4.38,4.38,0,0,0-.295,5.9c.983,1.18,2.458,2.949,4.227,4.817h0a47.2,47.2,0,0,0,4.817,4.227,4.488,4.488,0,0,0,5.9-.295l1.769-1.769,7.963,4.522C37.65,34.735,36.765,36.5,35.29,37.389Z"/></g></svg>