<svg xmlns="http://www.w3.org/2000/svg" width="26" height="26" viewBox="0 0 26 26"><defs><style>.a{fill:#262626;fill-rule:evenodd;}</style></defs><path class="a" d="M20.333,16.69l-2.22,2.21a1,1,0,0,1-1.306.065,39.313,39.313,0,0,1-3-2.665,39.253,39.253,0,0,1-2.676-2.99.985.985,0,0,1,.065-1.3l2.22-2.21L9.039,2c-1.436.13-4.5.455-6.136,2.925-1.5,2.4-.653,5.33-.392,6.175A28.869,28.869,0,0,0,9.17,20.85,27.591,27.591,0,0,0,18.9,27.48a10.358,10.358,0,0,0,2.938.52,6.132,6.132,0,0,0,3.264-.845c2.481-1.56,2.807-4.615,2.938-6.11Zm3.786,8.71c-1.632,1.04-3.917.39-4.5.195-2.742-.91-5.94-3.12-9.009-6.175-3-2.99-5.222-6.175-6.136-8.97-.2-.65-.849-2.86.2-4.485A4.6,4.6,0,0,1,8.06,4.08l3,5.265-1.24,1.17a2.887,2.887,0,0,0-.2,3.9c.653.78,1.632,1.95,2.807,3.185h0a31.3,31.3,0,0,0,3.2,2.8,2.99,2.99,0,0,0,3.917-.195l1.175-1.17,5.288,2.99A4.789,4.789,0,0,1,24.119,25.4Z" transform="translate(-2.036 -2)"/></svg>