<svg xmlns="http://www.w3.org/2000/svg" width="51.769" height="74.394" viewBox="0 0 51.769 74.394"><defs><style>.a{fill:#e11074;}.b{fill:#fff;}</style></defs><g transform="translate(-6.25 -8.63)"><path class="a" d="M42.191,8.63H10.026A3.778,3.778,0,0,0,6.25,12.406V79.248a3.778,3.778,0,0,0,3.776,3.776H54.243a3.778,3.778,0,0,0,3.776-3.776V25.77Z" transform="translate(0 0)"/><g transform="translate(14.456 42.962)"><rect class="b" width="10.037" height="10.364" transform="translate(11.934)"/><path class="b" d="M48.354,114.134H25.07v10.713H48.349v10.879h6.314a3.676,3.676,0,0,0,3.676-3.676V114.13H48.354Z" transform="translate(-25.07 -102.462)"/><path class="b" d="M35.7,97.734V87.37h-6.95a3.676,3.676,0,0,0-3.676,3.676v6.693H35.7Z" transform="translate(-25.07 -87.37)"/><path class="b" d="M78.47,97.734h9.989V91.046a3.676,3.676,0,0,0-3.676-3.676H78.47Z" transform="translate(-55.186 -87.37)"/><rect class="b" width="10.037" height="9.571" transform="translate(11.934 23.698)"/><path class="b" d="M35.7,141.72H25.07v5.9a3.676,3.676,0,0,0,3.676,3.676H35.7Z" transform="translate(-25.07 -118.022)"/></g></g></svg>