<svg xmlns="http://www.w3.org/2000/svg" width="27" height="22" viewBox="0 0 27.701 22.664" id="tv-play-bold">
  <path d="M28.7,3.5V19.239a3.788,3.788,0,0,1-3.777,3.777H18.061l.252.252a1.815,1.815,0,0,0,1.637,1.007H23.1v1.889H6.729V24.276H9.877a1.815,1.815,0,0,0,1.637-1.007h0l.126-.252H4.777A3.788,3.788,0,0,1,1,19.239H1V3.5ZM26.812,5.389H2.889v13.85a1.855,1.855,0,0,0,1.889,1.889H24.923a1.855,1.855,0,0,0,1.889-1.889h0ZM11.7,8.725l6.925,4.533L11.7,17.791Z" transform="translate(-1 -3.5)" fill="#e20074"></path>
</svg>