<svg
  viewBox="70.826 0 198.314 198.42"
  width="16"
  height="16"
  id="question-sign-15px"
  xmlns="http://www.w3.org/2000/svg"
>
  <path
    d="M269.141,99.21c0,54.764-44.395,99.157-99.158,99.157c-54.763,0-99.157-44.394-99.157-99.157c0-54.763,44.394-99.157,99.157-99.157C224.746,0.053,269.141,44.447,269.141,99.21z M253.73,99.21c0-46.252-37.494-83.748-83.749-83.748c-46.252,0-83.748,37.496-83.748,83.748c0,46.254,37.495,83.748,83.748,83.748C216.236,182.958,253.73,145.464,253.73,99.21z" 
    fill="#262626"
  ></path>
  <g>
    <g>
      <path
        d="M169.401,125.761c-4.787,0-8.681-3.896-8.681-8.682c0-13.034,2.822-22.229,8.626-28.113c1.811-1.834,3.774-3.302,6.163-4.94l1.07-0.728c0.567-0.386,1.198-0.815,1.46-0.995c6.091-4.196,7.12-6.333,7.12-10.621c0-8.085-6.333-13.517-15.758-13.517c-8.047,0-14.594,7.755-14.594,17.287c0,4.787-3.895,8.681-8.681,8.681s-8.681-3.895-8.681-8.681c0-19.105,14.335-34.649,31.956-34.649c19.191,0,33.121,12.986,33.121,30.879c0,12.315-5.849,18.867-14.629,24.916l-2.574,1.753c-1.869,1.282-2.883,2.07-3.61,2.809c-2.306,2.335-3.626,8.137-3.626,15.919C178.082,121.864,174.188,125.761,169.401,125.761z"
        fill="#262626"
      ></path>
    </g>
  </g>
  <g>
    <path
      d="M169.983,150.999c-4.434,0-8.04-3.605-8.04-8.039s3.606-8.04,8.04-8.04s8.041,3.606,8.041,8.04S174.417,150.999,169.983,150.999z"
      fill="#262626"
    ></path>
  </g>
</svg>